<svg width="24" height="20" viewBox="0 0 24 20" fill="none" xmlns="http://www.w3.org/2000/svg">
<path d="M0.667917 9.99194L7 8.83183L3.67208 11.3362C3.30458 11.7037 3.5649 12.3318 4.08443 12.3318H12.2037C11.8595 11.3693 11.6667 10.3459 11.6667 9.29194V7.75084L7.30151 4.55709C6.43307 3.97814 5.28573 4.04631 4.49203 4.72444L0.211823 8.966C-0.239531 9.34262 0.0860417 10.0751 0.667917 9.99194ZM20.9705 11.2352L17.3006 9.40095C17.01 9.25565 16.7655 9.0323 16.5947 8.75593C16.4239 8.47955 16.3334 8.16107 16.3333 7.83616V6.4985H18.6667L19.6908 7.32355C19.9095 7.5423 20.2063 7.66517 20.5158 7.66517H21.6449C21.8616 7.66515 22.074 7.60481 22.2583 7.4909C22.4426 7.37699 22.5915 7.21401 22.6884 7.02022L23.2101 5.97678C23.307 5.783 23.348 5.56606 23.3285 5.35029C23.3091 5.13451 23.23 4.92841 23.1 4.75506L20.3828 1.13183C20.1622 0.83798 19.8166 0.666626 19.4494 0.666626H10.7924C10.5324 0.666626 10.4023 0.979074 10.586 1.16282L12.8333 2.9985L10.6611 3.90413C10.446 4.01168 10.446 4.31829 10.6611 4.42584L12.8333 5.33183V9.29194C12.8333 11.9199 14.1469 14.3739 16.3333 15.8318C9.20245 16.0801 3.77125 17.327 0.506771 18.0525C0.210729 18.1181 0 18.381 0 18.6843C0 19.0416 0.289844 19.3333 0.6475 19.3333H18.8431C21.1506 19.3337 23.2039 17.5993 23.3271 15.2952C23.419 13.5714 22.4984 11.9993 20.9705 11.2352ZM17.8347 3.08199L19.499 3.49798C19.3988 3.89574 19.0444 4.18668 18.6193 4.16371C18.1468 4.13782 17.6768 3.70689 17.8347 3.08199Z" fill="white"/>
</svg>
