<svg width="22" height="22" viewBox="0 0 22 22" fill="none" xmlns="http://www.w3.org/2000/svg">
<path d="M2.35288 7.95043C3.00437 5.17301 5.17301 3.00437 7.95043 2.35288C9.9563 1.88237 12.0437 1.88237 14.0496 2.35288C16.827 3.00437 18.9956 5.17301 19.6471 7.95044C20.1176 9.9563 20.1176 12.0437 19.6471 14.0496C18.9956 16.827 16.827 18.9956 14.0496 19.6471C12.0437 20.1176 9.9563 20.1176 7.95044 19.6471C5.17301 18.9956 3.00437 16.827 2.35288 14.0496C1.88237 12.0437 1.88237 9.9563 2.35288 7.95043Z" fill="#63B83C" stroke="#63B83C" stroke-width="2.5"/>
<path d="M8.25 10.75L10.25 12.75L13.75 9" fill="#63B83C"/>
<path d="M8.25 10.75L10.25 12.75L13.75 9" stroke="white" stroke-width="2.5" stroke-linecap="round" stroke-linejoin="round"/>
</svg>
