<svg width="301" height="257" viewBox="0 0 301 257" fill="none" xmlns="http://www.w3.org/2000/svg">
<path d="M103.297 24.865C104.221 24.1716 105.152 23.4897 106.099 22.8252" stroke="#DDDDDD" stroke-width="3" stroke-linecap="round" stroke-linejoin="round"/>
<path d="M111.705 19.15C127.134 9.58638 144.922 4.5081 163.076 4.48414C170.676 4.48078 178.25 5.37494 185.641 7.14803" stroke="#DDDDDD" stroke-width="3" stroke-linecap="round" stroke-linejoin="round" stroke-dasharray="11.57 11.57"/>
<path d="M188.848 7.98596C189.961 8.29415 191.07 8.6216 192.176 8.96831" stroke="#DDDDDD" stroke-width="3" stroke-linecap="round" stroke-linejoin="round"/>
<path d="M112.161 227.922C111.173 227.344 110.191 226.708 109.226 226.078" stroke="#DDDDDD" stroke-width="3" stroke-linecap="round" stroke-linejoin="round"/>
<path d="M103.615 222.137C83.2917 206.911 67.9266 184.103 60.7844 157.349" stroke="#DDDDDD" stroke-width="3" stroke-linecap="round" stroke-linejoin="round" stroke-dasharray="11.9 11.9"/>
<path d="M59.9176 154.009C59.6518 152.888 59.3995 151.761 59.1606 150.628" stroke="#DDDDDD" stroke-width="3" stroke-linecap="round" stroke-linejoin="round"/>
<path d="M268.741 139.915C268.599 141.071 268.441 142.215 268.268 143.347" stroke="#DDDDDD" stroke-width="3" stroke-linecap="round" stroke-linejoin="round"/>
<path d="M267.014 150.316C265.336 158.405 262.875 166.311 259.663 173.921" stroke="#DDDDDD" stroke-width="3" stroke-linecap="round" stroke-linejoin="round" stroke-dasharray="12.25 12.25"/>
<path d="M258.242 177.186C257.76 178.238 257.267 179.28 256.762 180.313" stroke="#DDDDDD" stroke-width="3" stroke-linecap="round" stroke-linejoin="round"/>
<path d="M84.326 182.335L52.5789 187.027C52.0117 187.108 51.4345 186.976 50.9593 186.656C50.4842 186.335 50.145 185.85 50.0075 185.294L46.3324 168.143C46.2722 167.875 46.2689 167.597 46.3227 167.327C46.3764 167.057 46.486 166.802 46.6444 166.577C46.8027 166.352 47.0064 166.163 47.2423 166.022C47.4781 165.881 47.741 165.79 48.0139 165.757L79.761 161.07C80.3283 160.989 80.9055 161.121 81.3806 161.442C81.8558 161.762 82.195 162.247 82.3325 162.804L86.0076 179.914C86.0733 180.185 86.0808 180.466 86.0297 180.74C85.9786 181.014 85.87 181.274 85.7111 181.503C85.5522 181.731 85.3466 181.924 85.1078 182.067C84.8691 182.211 84.6026 182.302 84.326 182.335V182.335Z" fill="#F9F9F9" stroke="#EDEDED" stroke-width="2" stroke-linecap="round" stroke-linejoin="round"/>
<path d="M51.0303 168.553C51.3712 168.49 69.9549 174.569 69.9549 174.569L78.6227 163.636" stroke="#EDEDED" stroke-width="2" stroke-linecap="round" stroke-linejoin="round"/>
<path d="M55.8265 181.035L66.17 173.338" stroke="#EDEDED" stroke-width="2" stroke-linecap="round" stroke-linejoin="round"/>
<path d="M74.9244 173.338L82.7947 175.829" stroke="#EDEDED" stroke-width="2" stroke-linecap="round" stroke-linejoin="round"/>
<path d="M97.6686 208.963L89.4053 210.517C89.2941 210.538 89.1904 210.587 89.1048 210.661L83.9042 215.203C83.815 215.279 83.7066 215.329 83.5909 215.347C83.4752 215.366 83.3568 215.352 83.2486 215.307C83.1404 215.262 83.0467 215.188 82.9778 215.093C82.9089 214.999 82.8675 214.887 82.8583 214.77L81.9741 201.081C81.9654 200.965 81.9895 200.85 82.0437 200.747C82.0979 200.645 82.18 200.56 82.2804 200.503C82.3682 200.452 82.4679 200.425 82.5693 200.425C82.6708 200.425 82.7704 200.452 82.8583 200.503L97.8361 207.784C97.956 207.841 98.0544 207.935 98.1171 208.052C98.1798 208.169 98.2036 208.303 98.1849 208.435C98.1662 208.566 98.106 208.688 98.0132 208.783C97.9203 208.878 97.7996 208.941 97.6686 208.963V208.963Z" fill="white" stroke="#EDEDED" stroke-width="2" stroke-linecap="round" stroke-linejoin="round"/>
<path d="M97.6686 208.963L89.4053 210.517C89.2941 210.538 89.1904 210.587 89.1049 210.661L82.2804 200.503C82.3683 200.452 82.4679 200.425 82.5694 200.425C82.6708 200.425 82.7704 200.452 82.8583 200.503L97.8362 207.784C97.956 207.841 98.0544 207.935 98.1171 208.052C98.1798 208.169 98.2036 208.303 98.1849 208.435C98.1662 208.566 98.1061 208.688 98.0132 208.783C97.9204 208.878 97.7996 208.941 97.6686 208.963V208.963Z" fill="#EDEDED" stroke="#EDEDED" stroke-width="2" stroke-linecap="round" stroke-linejoin="round"/>
<path d="M98.2754 127.514C100.922 128.843 104.349 126.359 108.157 122.996L104.031 119.297C104.031 119.297 97.5589 125.33 98.2754 127.514Z" fill="#A7CAF0"/>
<path d="M133.553 111.606L124.001 131.074H103.909L100.564 121.724L111.936 111.606H133.553Z" fill="#FEBD9D"/>
<path d="M117.986 111.606L108.578 126.307" stroke="#EF8A66" stroke-width="0.75" stroke-linecap="round" stroke-linejoin="round"/>
<path d="M114.403 113.126C107.59 117.015 98.2754 127.514 98.2754 127.514L95.7733 132.484L94.3171 135.373H44.8878C43.7321 131.207 42.7382 125.781 41.9985 121.383C41.4207 117.98 41.0508 115.195 40.9006 114.102L40.837 113.611C39.5773 114.727 38.9648 114.767 38.9648 114.767L36.6534 120.875L36.4396 121.453C28.2341 115.963 13.2216 114.992 13.2216 114.992L15.2383 108.18C14.6324 106.779 14.4632 105.228 14.7529 103.73C15.0822 102.025 19.601 94.1204 24.1545 87.4867C25.9499 84.7882 27.9411 82.2252 30.1121 79.8186C30.2913 79.6337 30.4762 79.4545 30.6611 79.287C36.1564 74.2308 45.2634 74.9646 51.2499 75.5078C52.1398 75.5887 52.9835 75.6465 53.7693 75.6812C55.5383 75.7742 57.3109 75.7742 59.0798 75.6812C60.5302 75.6061 61.3276 75.4963 61.3276 75.4963C61.5125 74.6526 61.6859 73.7627 61.8592 72.7861C62.9398 66.4702 63.5466 58.0394 62.5816 52.4978L77.7906 59.2875C78.0506 62.0497 79.0676 68.1113 79.7668 72.0985C80.1598 74.329 80.4429 75.9123 80.4429 75.9123C81.668 75.687 82.8237 75.4847 83.91 75.2998C99.3502 72.6821 103.326 73.6645 107.602 81.1939C107.717 81.3903 107.827 81.5984 107.943 81.818C110.578 87.0186 112.375 97.4199 113.375 104.77C114.085 109.601 114.403 113.126 114.403 113.126Z" fill="#C3DCF8"/>
<path d="M114.403 113.126C107.723 116.946 98.6221 127.127 98.2811 127.503C98.4025 127.249 100.39 123.134 100.593 121.724C100.795 120.314 100.09 116.142 98.9977 112.219L113.444 104.793C114.085 109.601 114.403 113.126 114.403 113.126Z" fill="#C3DCF8"/>
<path d="M62.9629 115.374C62.8531 120.909 49.8862 121.689 42.0158 121.383C41.438 117.98 41.0682 115.194 40.9179 114.102L40.8544 113.611C43.7145 110.709 46.0785 107.358 47.8521 103.689C52.4749 106.845 46.5462 110.086 46.3208 111.606C45.7083 115.772 63.119 107.469 62.9629 115.374Z" fill="#A7CAF0"/>
<path d="M108.001 81.8411C103.493 80.2751 98.4314 80.3271 94.9238 85.9265C87.0246 98.5352 72.197 108.37 57.3635 93.4848C55.3352 91.3951 53.1163 89.4992 50.7356 87.8219C41.9696 81.8238 34.5558 83.0373 24.1891 87.4809C25.9845 84.7824 27.9757 82.2195 30.1468 79.8128C30.3259 79.6279 30.5108 79.4488 30.6957 79.2812C36.1911 74.225 45.298 74.9589 51.2845 75.5021C52.1744 75.583 53.0181 75.6408 53.804 75.6754C55.5729 75.7685 57.3455 75.7685 59.1144 75.6754C60.5648 75.6003 61.3623 75.4905 61.3623 75.4905C61.5472 74.6469 61.7205 73.757 61.8939 72.7804C62.9745 66.4645 63.5812 58.0337 62.6162 52.4921L77.8252 59.2818C78.0853 62.0439 79.1023 68.1056 79.8015 72.0928C80.1944 74.3233 80.4776 75.9066 80.4776 75.9066C81.7026 75.6812 82.8583 75.479 83.9447 75.2941C99.3848 72.6764 103.36 73.6587 107.637 81.1881C107.775 81.4135 107.885 81.6215 108.001 81.8411Z" fill="#D0E5F7"/>
<path d="M83.9678 75.323C83.9216 79.2293 83.4998 86.3484 81.8009 91.3815C79.605 97.9112 77.0163 95.2589 74.1732 92.6817C71.6018 90.3356 62.2291 82.5288 53.8098 75.6929C55.5787 75.7859 57.3513 75.7859 59.1202 75.6929C60.5706 75.6178 61.3681 75.508 61.3681 75.508C61.553 74.6643 61.7263 73.7744 61.8997 72.7978C68.0076 72.3991 75.3347 72.0062 79.8131 72.1102C80.206 74.3407 80.4892 75.924 80.4892 75.924C81.7026 75.6871 82.8583 75.508 83.9678 75.323Z" fill="#83ADDF"/>
<path d="M77.9813 90.2546C77.9813 90.2546 64.9681 81.402 59.1202 75.687C60.5706 75.6119 61.3681 75.5021 61.3681 75.5021C62.7607 69.1053 63.7315 58.8889 62.622 52.5037L72.509 56.9127L77.831 59.2934C78.0217 61.3332 78.6343 65.2048 79.2179 68.6835C79.8651 72.532 80.4834 75.9182 80.4834 75.9182C80.9572 87.14 77.9813 90.2546 77.9813 90.2546Z" fill="#FEBD9D"/>
<path d="M98.2754 127.514C98.3967 127.26 100.385 123.146 100.587 121.736C100.789 120.326 100.084 116.154 98.9919 112.23C98.9341 112.028 98.8764 111.82 98.8128 111.618" stroke="#83ADDF" stroke-width="0.75" stroke-linecap="round" stroke-linejoin="round"/>
<path d="M79.2121 68.7008C68.9437 69.3306 70.0994 58.2937 70.1861 58.0163L72.4975 56.9299L77.8195 59.3107C78.016 61.3505 78.6285 65.2221 79.2121 68.7008Z" fill="#F4A789"/>
<path d="M13.2562 114.981C12.9673 115.83 12.9673 116.755 19.4103 118.569L20.4042 114.345C20.4042 114.345 14.5448 112.762 13.2562 114.981Z" fill="#A7CAF0"/>
<path d="M16.7869 112.756C15.2729 117.691 9.99136 134.218 9.99136 134.218C8.55829 140.279 26.5352 144.238 32.932 133.94L36.4511 117.362C30.6354 113.577 23.6783 111.948 16.7869 112.756V112.756Z" fill="#FEBD9D"/>
<path d="M46.344 106.481C46.3215 106.514 46.3022 106.548 46.2862 106.585C45.5234 107.804 44.674 109.046 43.7494 110.329L43.6858 110.416C42.819 111.547 41.8728 112.615 40.8544 113.611C39.5947 114.727 38.9821 114.767 38.9821 114.767L36.4743 121.441C36.22 121.274 35.96 121.106 35.6884 120.944C31.1118 118.171 24.8132 116.645 20.0864 115.836C18.532 115.57 17.1452 115.386 16.0415 115.258C14.3426 115.056 13.2909 114.987 13.2909 114.987L15.3076 108.174C14.7017 106.773 14.5325 105.223 14.8222 103.724C15.1516 102.02 19.6704 94.1148 24.2238 87.4811C26.0192 84.7826 28.0104 82.2196 30.1815 79.813C30.3606 79.6281 30.5455 79.449 30.7304 79.2814C38.5199 75.6352 48.6438 76.5308 50.6374 87.0419C50.6894 87.302 50.7356 87.562 50.7703 87.822C51.8798 94.8198 50.152 100.373 46.344 106.481Z" fill="#C3DCF8"/>
<path d="M50.7356 87.822C41.9696 81.8239 34.5558 83.0374 24.1891 87.4811C25.9845 84.7826 27.9757 82.2196 30.1468 79.813C30.3259 79.6281 30.5108 79.449 30.6957 79.2814C38.4851 75.6352 48.6091 76.5308 50.6027 87.0419C50.6547 87.3193 50.7009 87.5793 50.7356 87.822Z" fill="#D0E5F7"/>
<path d="M18.4742 109.618C23.9002 109.618 29.2049 111.837 30.1006 112.259" stroke="#83ADDF" stroke-width="0.75" stroke-linecap="round" stroke-linejoin="round"/>
<path d="M40.8544 113.611C41.8728 112.615 42.819 111.547 43.6858 110.416L43.7494 110.329C44.6628 109.128 45.5096 107.878 46.2862 106.585C46.3022 106.548 46.3215 106.513 46.344 106.481C46.9565 105.446 47.465 104.493 47.8521 103.69C48.17 103.066 48.4011 102.534 48.5629 102.141" stroke="#83ADDF" stroke-width="0.75" stroke-linecap="round" stroke-linejoin="round"/>
<path d="M87.8278 108.786C88.0359 111.52 86.4295 112.219 86.4295 112.219C86.649 118.864 84.6959 122.042 81.4484 122.886C78.2009 123.73 69.8105 125.509 69.8105 125.509C68.9408 125.863 68.1019 126.288 67.3026 126.781C66.3665 127.312 65.205 127.994 63.8355 128.803C59.6634 131.242 53.0932 133.518 45.2865 137.633C31.4527 144.925 21.5946 140.973 20.9358 133.235C19.7455 119.072 37.734 118.148 44.3041 117.055C49.0656 116.258 56.439 114.368 61.0098 113.311C62.7433 112.918 64.0435 112.641 64.656 112.583C66.8519 112.386 71.4053 109.983 79.397 107.469C87.3887 104.955 93.8433 103.499 93.8433 105.262C93.8433 107.024 87.8278 108.786 87.8278 108.786Z" fill="#FEBD9D"/>
<path d="M79.4086 107.469C87.3945 104.944 93.8548 103.499 93.8548 105.261C93.8548 107.024 87.8048 108.804 87.8048 108.804C88.0128 111.537 86.4064 112.236 86.4064 112.236C86.6259 118.881 84.6728 122.059 81.4253 122.903" stroke="#EF8A66" stroke-width="0.75" stroke-linecap="round" stroke-linejoin="round"/>
<path d="M24.2874 123.649C27.7545 120.291 33.3076 118.841 37.9998 118.02" stroke="#EF8A66" stroke-width="0.75" stroke-linecap="round" stroke-linejoin="round"/>
<path d="M67.3026 126.781C66.3665 127.312 65.205 127.994 63.8355 128.803C60.6168 125.215 58.9469 119.656 61.0098 113.294C62.7433 112.901 64.0435 112.623 64.656 112.566C63.1652 116.639 62.8878 123.285 67.3026 126.781Z" fill="#683F1D"/>
<path d="M87.8278 108.786L82.8872 110.387" stroke="#EF8A66" stroke-width="0.75" stroke-linecap="round" stroke-linejoin="round"/>
<path d="M86.4295 112.219L83.39 113.322" stroke="#EF8A66" stroke-width="0.75" stroke-linecap="round" stroke-linejoin="round"/>
<path d="M83.7194 116.512L86.3081 115.807" stroke="#EF8A66" stroke-width="0.75" stroke-linecap="round" stroke-linejoin="round"/>
<path d="M66.1354 120.759C66.1354 121.586 65.8903 122.393 65.4313 123.08C64.9722 123.767 64.3197 124.303 63.5563 124.619C62.7929 124.935 61.9529 125.018 61.1424 124.857C60.332 124.696 59.5876 124.298 59.0033 123.713C58.419 123.129 58.0211 122.385 57.8599 121.574C57.6987 120.764 57.7814 119.924 58.0977 119.16C58.4139 118.397 58.9494 117.745 59.6364 117.286C60.3234 116.826 61.1312 116.581 61.9575 116.581C63.0655 116.581 64.1282 117.022 64.9117 117.805C65.6952 118.589 66.1354 119.651 66.1354 120.759V120.759Z" fill="white" stroke="#683F1D" stroke-linecap="round" stroke-linejoin="round"/>
<path d="M124.001 43.437V129.699H1V43.437C0.999243 42.2945 1.22363 41.163 1.66034 40.1072C2.09705 39.0514 2.73752 38.092 3.54515 37.2839C4.35279 36.4757 5.31175 35.8346 6.36725 35.3972C7.42276 34.9598 8.55411 34.7346 9.69666 34.7346H115.305C116.447 34.7346 117.579 34.9598 118.634 35.3972C119.69 35.8346 120.649 36.4757 121.456 37.2839C122.264 38.092 122.904 39.0514 123.341 40.1072C123.778 41.163 124.002 42.2945 124.001 43.437Z" stroke="#DDDDDD" stroke-width="2" stroke-linecap="round" stroke-linejoin="round"/>
<path d="M124.001 43.437V43.8242H1V43.437C0.999243 42.2945 1.22363 41.163 1.66034 40.1072C2.09705 39.0514 2.73752 38.092 3.54515 37.2839C4.35279 36.4757 5.31175 35.8346 6.36725 35.3972C7.42276 34.9598 8.55411 34.7346 9.69666 34.7346H115.305C116.447 34.7346 117.579 34.9598 118.634 35.3972C119.69 35.8346 120.649 36.4757 121.456 37.2839C122.264 38.092 122.904 39.0514 123.341 40.1072C123.778 41.163 124.002 42.2945 124.001 43.437Z" stroke="#DDDDDD" stroke-width="2" stroke-linecap="round" stroke-linejoin="round"/>
<path d="M107.353 39.2823C107.353 39.5954 107.261 39.9016 107.087 40.1619C106.913 40.4223 106.665 40.6252 106.376 40.7451C106.087 40.8649 105.768 40.8963 105.461 40.8352C105.154 40.7741 104.872 40.6233 104.651 40.4019C104.429 40.1804 104.278 39.8983 104.217 39.5912C104.156 39.284 104.188 38.9657 104.307 38.6764C104.427 38.3871 104.63 38.1398 104.89 37.9658C105.151 37.7918 105.457 37.699 105.77 37.699C105.978 37.699 106.184 37.7399 106.376 37.8195C106.568 37.8991 106.743 38.0157 106.89 38.1627C107.037 38.3097 107.153 38.4843 107.233 38.6764C107.312 38.8685 107.353 39.0744 107.353 39.2823V39.2823Z" fill="#DDDDDD"/>
<path d="M110.93 40.8656C111.805 40.8656 112.514 40.1567 112.514 39.2823C112.514 38.4079 111.805 37.699 110.93 37.699C110.056 37.699 109.347 38.4079 109.347 39.2823C109.347 40.1567 110.056 40.8656 110.93 40.8656Z" fill="#EDEDED"/>
<path d="M117.674 39.2823C117.674 39.5957 117.581 39.902 117.407 40.1625C117.232 40.423 116.985 40.626 116.695 40.7456C116.405 40.8653 116.087 40.8963 115.78 40.8348C115.472 40.7732 115.19 40.6218 114.969 40.3998C114.748 40.1778 114.597 39.8951 114.537 39.5876C114.477 39.2801 114.509 38.9616 114.629 38.6724C114.75 38.3832 114.954 38.1363 115.215 37.963C115.476 37.7897 115.783 37.6978 116.096 37.699C116.304 37.699 116.51 37.74 116.701 37.8196C116.893 37.8993 117.067 38.016 117.214 38.1631C117.36 38.3102 117.476 38.4848 117.555 38.6768C117.634 38.8689 117.675 39.0746 117.674 39.2823Z" fill="#DDDDDD"/>
<path d="M94.1553 114.923C96.1316 112.825 99.4311 112.565 99.4311 112.565L103.251 116.512C103.251 116.512 104.337 104.857 99.4311 88.8677C98.5008 96.6744 95.6289 109.237 94.1553 114.923Z" fill="#DDDDDD" stroke="#DDDDDD" stroke-linecap="round" stroke-linejoin="round"/>
<path d="M131.843 86.4986C137.361 104.007 137.095 116.512 137.095 116.512H103.251C103.251 116.512 98.6915 99.1362 99.4311 88.8678C99.4311 88.8678 98.7897 86.4466 100.91 86.2328C103.031 86.019 131.843 86.4986 131.843 86.4986Z" fill="#F9F9F9" stroke="#DDDDDD" stroke-linecap="round" stroke-linejoin="round"/>
<path d="M104.724 86.325C104.721 86.2769 104.721 86.2287 104.724 86.1806C104.773 85.7129 104.957 85.2695 105.253 84.904C105.549 84.5386 105.944 84.2667 106.391 84.1213C106.839 83.9759 107.318 83.9632 107.773 84.0848C108.227 84.2064 108.636 84.457 108.951 84.8063C109.266 85.1557 109.472 85.5887 109.546 86.0532C109.62 86.5176 109.558 86.9934 109.367 87.4231C109.176 87.8528 108.864 88.2179 108.47 88.4743C108.076 88.7306 107.616 88.8672 107.145 88.8676" stroke="#EDEDED" stroke-linecap="round" stroke-linejoin="round"/>
<path d="M121.921 86.3251C121.983 85.8621 122.177 85.4268 122.48 85.0711C122.783 84.7155 123.182 84.4546 123.629 84.3197C124.077 84.1847 124.553 84.1814 125.002 84.3101C125.451 84.4387 125.854 84.694 126.162 85.0454C126.47 85.3967 126.67 85.8293 126.739 86.2914C126.807 86.7534 126.741 87.2255 126.549 87.6512C126.356 88.0768 126.045 88.438 125.653 88.6917C125.261 88.9453 124.804 89.0806 124.336 89.0814C123.931 89.0807 123.532 88.9731 123.181 88.7694" stroke="#EDEDED" stroke-linecap="round" stroke-linejoin="round"/>
<path d="M111.63 86.2211C111.656 85.5874 111.919 84.9865 112.366 84.5364C112.812 84.0863 113.411 83.8195 114.045 83.7883C114.712 83.8575 115.329 84.1713 115.778 84.6691C116.227 85.167 116.476 85.8136 116.476 86.484C116.476 87.1544 116.227 87.801 115.778 88.2989C115.329 88.7967 114.712 89.1106 114.045 89.1797C113.5 89.171 112.977 88.9658 112.571 88.6018" stroke="#EDEDED" stroke-linecap="round" stroke-linejoin="round"/>
<path d="M116.784 86.2789C116.845 85.8167 117.038 85.3818 117.34 85.0263C117.641 84.6708 118.039 84.4097 118.485 84.2743C118.932 84.139 119.407 84.135 119.856 84.2629C120.304 84.3908 120.706 84.6452 121.014 84.9956C121.321 85.346 121.522 85.7776 121.59 86.2388C121.659 86.7 121.594 87.1713 121.402 87.5962C121.21 88.0211 120.899 88.3817 120.508 88.6349C120.116 88.8881 119.66 89.0231 119.194 89.0237" stroke="#EDEDED" stroke-linecap="round" stroke-linejoin="round"/>
<path d="M130.028 92.1268H106.313V94.837H130.028V92.1268Z" stroke="#DDDDDD" stroke-linecap="round" stroke-linejoin="round"/>
<path d="M112.19 113.559L111.89 111.277L110.364 99.5293L110.11 97.5992" stroke="#EDEDED" stroke-linecap="round" stroke-linejoin="round"/>
<path d="M119.887 113.559L119.569 111.115L118.078 99.6795L117.807 97.5992" stroke="#EDEDED" stroke-linecap="round" stroke-linejoin="round"/>
<path d="M125.51 97.5934L127.584 113.565" stroke="#EDEDED" stroke-linecap="round" stroke-linejoin="round"/>
<path d="M130.283 100.789H118.223H110.526H107.151" stroke="#EDEDED" stroke-linecap="round" stroke-linejoin="round"/>
<path d="M131.456 107.763H119.13H111.433H108.318" stroke="#EDEDED" stroke-linecap="round" stroke-linejoin="round"/>
<path d="M112.722 98.1481C108.896 100.101 107.053 108.243 113.542 108.786C123.106 109.584 123.562 97.8071 115.183 98.9166" fill="#F9F9F9"/>
<path d="M112.722 98.1481C108.896 100.101 107.053 108.243 113.542 108.786C123.106 109.584 123.562 97.8071 115.183 98.9166" stroke="#DDDDDD" stroke-width="2" stroke-linecap="round" stroke-linejoin="round"/>
<path d="M119.13 107.763H111.433L110.526 100.789H118.223L119.13 107.763Z" fill="#EDEDED"/>
<path d="M132.958 106.712C133.12 109.364 138.159 106.446 137.812 104.123C137.465 101.8 132.767 103.638 132.958 106.712Z" fill="#FEBD9D" stroke="#EF8A66" stroke-width="0.75" stroke-linecap="round" stroke-linejoin="round"/>
<path d="M132.103 103.141C132.288 105.799 137.962 102.881 137.592 100.552C137.222 98.2232 131.889 100.072 132.103 103.141Z" fill="#FEBD9D" stroke="#EF8A66" stroke-width="0.75" stroke-linecap="round" stroke-linejoin="round"/>
<path d="M131.704 100.477C131.901 103.129 137.985 100.211 137.587 97.888C137.188 95.565 131.479 97.4026 131.704 100.477Z" fill="#FEBD9D" stroke="#EF8A66" stroke-width="0.75" stroke-linecap="round" stroke-linejoin="round"/>
<path d="M130.849 97.1888C131.051 99.5984 137.327 96.9519 136.916 94.8427C136.506 92.7336 130.612 94.4035 130.849 97.1888Z" fill="#FEBD9D" stroke="#EF8A66" stroke-width="0.75" stroke-linecap="round" stroke-linejoin="round"/>
<path d="M112.722 98.1481C108.896 100.101 107.053 108.243 113.542 108.786C123.106 109.584 123.562 97.8071 115.183 98.9166" stroke="#DDDDDD" stroke-width="2" stroke-linecap="round" stroke-linejoin="round"/>
<path d="M89.8849 36.3123C89.3822 40.4902 83.7944 42.9402 83.7944 42.9402L68.2907 56.4735C66.7016 59.0103 62.3735 60.2873 59.7385 58.1666C58.1956 56.93 57.2364 54.5319 57.7565 50.539C57.325 50.5391 56.9031 50.4126 56.543 50.1749C54.7574 49.0712 53.6537 45.5521 56.3349 41.3743C56.1442 41.5592 52.5731 45.0321 48.898 43.9804C48.266 43.8115 47.677 43.5105 47.17 43.0971C46.6629 42.6837 46.2494 42.1674 45.9567 41.5823C44.801 39.2189 45.2055 35.2779 48.5051 29.875C50.8511 26.0208 54.116 25.3274 56.9128 26.0497C60.0794 26.8587 62.6451 29.459 62.6451 31.3486C63.3437 30.4912 64.1542 29.7313 65.0547 29.0892C66.2913 28.2282 67.8226 27.6445 69.1921 28.4766C69.1921 28.4766 74.0114 25.8821 76.7504 27.5058C80.1597 29.5168 79.4085 30.9152 82.7254 31.1347C85.1928 31.2965 89.0817 31.9206 89.7925 34.7174C89.9278 35.2378 89.9592 35.7798 89.8849 36.3123Z" fill="#DD6819"/>
<path d="M62.6451 31.3486L56.3465 41.3627C55.8967 41.7836 55.4157 42.17 54.9077 42.5184C53.492 43.5008 51.2268 44.6218 48.9154 43.9631C48.2833 43.7942 47.6944 43.4931 47.1873 43.0797C46.6803 42.6663 46.2668 42.15 45.9741 41.565C53.151 41.4147 55.6762 39.4096 54.2027 35.4629C52.8332 31.7877 51.4117 27.1707 56.9302 26.0323C59.0891 26.57 60.9652 27.9033 62.1828 29.7653C62.4701 30.2447 62.6293 30.7899 62.6451 31.3486V31.3486Z" fill="#CC5E0D"/>
<path d="M89.885 36.3121C89.3822 40.49 83.7944 42.9401 83.7944 42.9401L68.2907 56.4733C66.7016 59.0101 62.3735 60.2872 59.7385 58.1664C58.8273 55.9813 58.6035 53.5704 59.097 51.2548C59.5904 48.9393 60.7777 46.8291 62.5006 45.2053C65.6788 42.316 63.3501 40.1606 63.6563 36.3584C63.9626 32.5561 70.9199 26.7025 75.901 31.9551C79.8073 36.0752 87.1575 31.0941 89.8214 34.7173C89.9471 35.2396 89.9687 35.7815 89.885 36.3121V36.3121Z" fill="#CC5E0D"/>
<path d="M80.3793 63.9625C73.4105 63.246 66.3376 56.017 66.3376 56.017C63.6795 59.045 58.4384 54.5204 61.0329 50.7528C62.7318 48.2738 65.3899 49.7474 66.0371 51.0995C67.1153 50.4034 67.906 49.3414 68.2638 48.1088C68.6215 46.8763 68.5224 45.556 67.9844 44.3907C67.414 42.96 67.1673 41.4208 67.2621 39.8834C69.6198 36.3008 75.8721 35.4802 75.8721 35.4802C76.7962 36.4546 77.9203 37.2174 79.1672 37.7161C80.414 38.2148 81.7541 38.4377 83.0952 38.3695C83.0952 38.3695 85.2391 42.5589 86.9842 46.8177C87.0188 46.9101 87.0651 47.0141 87.0998 47.1066C87.5909 48.3201 88.0474 49.5336 88.4057 50.643C88.4404 50.7528 88.4693 50.8511 88.5039 50.9551C88.7908 51.8313 89.0034 52.7302 89.1396 53.6421C89.7001 58.2244 87.3424 64.7079 80.3793 63.9625Z" fill="#FEBD9D"/>
<path d="M83.2744 44.9049C83.2744 45.0535 83.3185 45.1987 83.401 45.3222C83.4836 45.4458 83.6009 45.5421 83.7382 45.5989C83.8754 45.6558 84.0265 45.6707 84.1722 45.6417C84.3179 45.6127 84.4517 45.5411 84.5568 45.4361C84.6619 45.331 84.7334 45.1972 84.7624 45.0514C84.7914 44.9057 84.7765 44.7547 84.7197 44.6174C84.6628 44.4802 84.5665 44.3628 84.443 44.2803C84.3194 44.1978 84.1742 44.1537 84.0256 44.1537C83.8269 44.1552 83.6367 44.2348 83.4961 44.3754C83.3556 44.5159 83.2759 44.7061 83.2744 44.9049V44.9049Z" fill="#683F1D"/>
<path d="M79.4085 46.4131C79.8234 46.4131 80.1597 46.0767 80.1597 45.6618C80.1597 45.247 79.8234 44.9106 79.4085 44.9106C78.9936 44.9106 78.6573 45.247 78.6573 45.6618C78.6573 46.0767 78.9936 46.4131 79.4085 46.4131Z" fill="#683F1D"/>
<path d="M78.5244 50.7469C80.0302 51.502 81.7006 51.8695 83.3842 51.816C83.3842 51.816 83.0606 54.6301 80.6452 53.8789C78.536 53.2259 78.5244 50.7469 78.5244 50.7469Z" fill="white" stroke="#EF8A66" stroke-width="0.75" stroke-linecap="round" stroke-linejoin="round"/>
<path d="M76.1437 43.4544C76.4211 44.3789 79.894 43.4544 79.5126 41.952C79.1312 40.4495 75.745 42.1715 76.1437 43.4544Z" fill="#DD6819"/>
<path d="M82.0436 41.5939C81.9916 42.5994 85.5453 42.6687 85.5453 41.8019C85.5453 41.0161 82.136 39.9701 82.0436 41.5939Z" fill="#DD6819"/>
<path d="M57.7565 50.5389C58.1869 47.695 59.563 45.0792 61.6628 43.1135" stroke="#FF79A0" stroke-width="0.75" stroke-linecap="round" stroke-linejoin="round"/>
<path d="M69.1922 28.4708C68.1 29.3434 66.4647 32.1806 65.8291 33.4577" stroke="#FF79A0" stroke-width="0.75" stroke-linecap="round" stroke-linejoin="round"/>
<path d="M68.2213 36.318C69.51 32.8856 71.9889 31.3369 73.1504 32.6544C74.3119 33.9719 75.8721 35.4743 75.8721 35.4743" stroke="#FF79A0" stroke-width="0.75" stroke-linecap="round" stroke-linejoin="round"/>
<path d="M83.0952 38.3984C84.5398 38.3406 85.9151 36.8671 86.3312 36.0118" stroke="#FF79A0" stroke-width="0.75" stroke-linecap="round" stroke-linejoin="round"/>
<path d="M54.1854 40.7443C48.8576 41.5764 46.2284 33.6887 50.5565 27.4537" stroke="#FF79A0" stroke-width="0.75" stroke-linecap="round" stroke-linejoin="round"/>
<path d="M59.5247 33.4577C60.6399 30.5684 56.9186 25.9052 54.9019 29.1064C52.5905 32.77 55.9651 37.6297 59.5247 37.1964" stroke="#FF79A0" stroke-width="0.75" stroke-linecap="round" stroke-linejoin="round"/>
<path d="M56.3465 41.3627C57.622 37.5723 59.781 34.1398 62.6451 31.3485C62.6451 31.3485 61.0271 34.6307 62.2117 36.9652C60.1555 38.2911 58.1956 39.7606 56.3465 41.3627V41.3627Z" fill="#FED81D"/>
<path d="M61.6628 53.226C62.7376 51.3248 64.604 51.4288 65.5864 53.0295" stroke="#EF8A66" stroke-width="0.75" stroke-linecap="round" stroke-linejoin="round"/>
<path d="M65.1935 52.521C62.9803 51.9432 62.9745 54.9133 65.3264 54.4915" stroke="#EF8A66" stroke-width="0.75" stroke-linecap="round" stroke-linejoin="round"/>
<path d="M81.2693 44.3617C81.2346 46.0952 82.6214 47.0892 83.5344 47.5688C84.4474 48.0484 84.147 49.3023 84.0834 49.4872" stroke="#EF8A66" stroke-width="0.75" stroke-linecap="round" stroke-linejoin="round"/>
<path d="M66.3433 56.0401C66.6978 55.5821 66.9929 55.0812 67.2217 54.5492" stroke="#EF8A66" stroke-width="0.75" stroke-linecap="round" stroke-linejoin="round"/>
<path d="M76.3517 50.1806C75.7738 51.2785 73.9998 51.4808 72.3067 50.6429C70.6136 49.805 69.7295 48.2275 70.2842 47.1296C70.839 46.0316 72.6361 45.8294 74.3292 46.673C76.0223 47.5167 76.9064 49.1058 76.3517 50.1806Z" fill="#F4AF90"/>
<path d="M88.504 50.9781C88.1415 51.1457 87.739 51.207 87.3431 51.1548C86.9472 51.1026 86.5743 50.9392 86.2677 50.6834C85.4298 49.8455 85.7476 48.1466 86.9842 46.8407C87.0189 46.9332 87.0651 47.0372 87.0998 47.1296C87.591 48.3431 88.0474 49.5566 88.4057 50.6661C88.4404 50.7759 88.4693 50.8741 88.504 50.9781Z" fill="#F4AF90"/>
<path d="M294.305 23.3569V109.618H171.327V23.3569C171.327 21.0488 172.244 18.8353 173.876 17.2033C175.508 15.5713 177.722 14.6544 180.03 14.6544H285.638C287.94 14.6621 290.146 15.5825 291.77 17.2138C293.395 18.8452 294.307 21.0544 294.305 23.3569V23.3569Z" stroke="#EDEDED" stroke-width="2" stroke-linecap="round" stroke-linejoin="round"/>
<path d="M294.305 23.3569V23.744H171.327V23.3569C171.327 21.0488 172.244 18.8353 173.876 17.2033C175.508 15.5713 177.722 14.6544 180.03 14.6544H285.638C287.94 14.6621 290.146 15.5825 291.77 17.2138C293.395 18.8452 294.307 21.0544 294.305 23.3569V23.3569Z" stroke="#DDDDDD" stroke-width="2" stroke-linecap="round" stroke-linejoin="round"/>
<path d="M277.681 19.2021C277.681 19.5155 277.588 19.8218 277.413 20.0823C277.239 20.3428 276.992 20.5458 276.702 20.6654C276.412 20.7851 276.094 20.8161 275.786 20.7546C275.479 20.693 275.197 20.5416 274.976 20.3196C274.754 20.0976 274.604 19.8149 274.544 19.5074C274.483 19.1999 274.515 18.8814 274.636 18.5922C274.757 18.303 274.961 18.0561 275.222 17.8828C275.483 17.7095 275.79 17.6176 276.103 17.6188C276.311 17.6188 276.516 17.6598 276.708 17.7394C276.9 17.8191 277.074 17.9358 277.221 18.0829C277.367 18.23 277.483 18.4046 277.562 18.5966C277.641 18.7887 277.681 18.9944 277.681 19.2021V19.2021Z" fill="#EDEDED"/>
<path d="M282.847 19.2021C282.847 19.5152 282.754 19.8214 282.58 20.0817C282.406 20.3421 282.159 20.545 281.869 20.6649C281.58 20.7847 281.262 20.8161 280.954 20.755C280.647 20.6939 280.365 20.5431 280.144 20.3217C279.922 20.1002 279.772 19.8181 279.71 19.511C279.649 19.2038 279.681 18.8855 279.801 18.5962C279.92 18.3069 280.123 18.0596 280.384 17.8856C280.644 17.7116 280.95 17.6188 281.263 17.6188C281.683 17.6188 282.086 17.7856 282.383 18.0825C282.68 18.3794 282.847 18.7822 282.847 19.2021V19.2021Z" fill="#DDDDDD"/>
<path d="M288.007 19.2021C288.007 19.5152 287.914 19.8214 287.74 20.0817C287.566 20.3421 287.319 20.545 287.029 20.6649C286.74 20.7847 286.422 20.8161 286.115 20.755C285.808 20.6939 285.525 20.5431 285.304 20.3217C285.083 20.1002 284.932 19.8181 284.871 19.511C284.81 19.2038 284.841 18.8855 284.961 18.5962C285.081 18.3069 285.284 18.0596 285.544 17.8856C285.804 17.7116 286.11 17.6188 286.424 17.6188C286.843 17.6188 287.246 17.7856 287.543 18.0825C287.84 18.3794 288.007 18.7822 288.007 19.2021V19.2021Z" fill="#EDEDED"/>
<path d="M173.951 60.8594C173.633 57.2536 189.553 50.4176 192.182 55.6934L186.981 60.8594C186.981 60.8594 176.239 65.1182 173.951 60.8594Z" fill="#93BEE5"/>
<path d="M181.74 35.0699C179.429 27.8815 179.255 26.98 180.804 26.4426C182.353 25.9052 186.276 34.0702 186.721 35.0699C188.276 38.2164 189.474 41.5269 190.292 44.9396C190.98 48.1293 191.881 55.4738 192.026 57.2421C192.638 64.7079 180.33 66.9788 179.793 61.1714C179.255 55.364 179.215 53.486 179.215 53.486C179.215 53.486 172.859 54.0639 171.969 49.3371C171.079 44.6102 171.327 38.1268 171.327 38.1268C171.327 38.1268 161.666 36.5261 162.001 33.9778C162.336 31.4295 181.243 36.5781 181.243 36.5781L181.74 35.0699Z" fill="#B25E47"/>
<path d="M171.327 38.1264C171.327 38.1264 161.666 36.5257 162.001 33.9774C162.336 31.4291 181.243 36.5778 181.243 36.5778L181.74 35.0869C179.429 27.8984 179.255 26.997 180.804 26.4596C182.353 25.9222 186.276 34.0872 186.721 35.0869" stroke="#934735" stroke-width="0.75" stroke-linecap="round" stroke-linejoin="round"/>
<path d="M181.243 36.5607C180.413 39.7462 180.546 43.1064 181.625 46.2166" stroke="#934735" stroke-width="0.75" stroke-linecap="round" stroke-linejoin="round"/>
<path d="M176.719 31.0481C178.233 31.834 179.429 32.0015 179.879 29.8404C180.33 27.6792 178.198 27.6272 177.51 27.7428C176.453 27.9161 176.066 30.7071 176.719 31.0481Z" fill="#683F1D"/>
<path d="M177.002 30.4933C176.764 31.3358 176.571 32.1903 176.424 33.0532C176.672 33.1803 178.157 33.683 178.354 33.1803C178.581 32.2979 178.741 31.3997 178.834 30.4933H177.002Z" fill="#683F1D"/>
<path d="M175.65 33.7697C174.858 37.3119 170.767 56.7277 170.628 57.3633C170.489 57.9989 170.674 60.9344 170.923 61.0442C171.171 61.154 172.598 59.0564 173.119 57.9932C173.639 56.9299 178.238 35.6246 178.521 34.6307C179.226 32.2095 176.17 31.4525 175.65 33.7697Z" fill="#683F1D"/>
<path d="M172.05 44.7894C170.067 45.2459 169.507 47.1355 170.969 48.3894C172.541 49.7416 176.412 49.1406 176.591 47.4128C176.771 45.6851 173.702 44.4138 172.05 44.7894Z" fill="#B25E47" stroke="#934735" stroke-width="0.75" stroke-linecap="round" stroke-linejoin="round"/>
<path d="M171.87 41.6922C169.836 41.3917 169.339 43.4257 170.79 44.9859C172.24 46.5461 177.031 46.8986 177.302 45.0437C177.574 43.1888 173.119 41.8771 171.87 41.6922Z" fill="#B25E47" stroke="#934735" stroke-width="0.75" stroke-linecap="round" stroke-linejoin="round"/>
<path d="M170.068 38.2193C172.622 37.6414 178.157 41.3685 177.932 42.53C177.661 43.992 175.043 44.2116 171.356 42.6456C167.895 41.1778 168.819 38.514 170.068 38.2193Z" fill="#B25E47" stroke="#934735" stroke-width="0.75" stroke-linecap="round" stroke-linejoin="round"/>
<path d="M293.017 66.3779C285.089 65.9908 278.524 73.1388 276.49 81.3558C276.432 81.5869 276.38 81.8354 276.334 82.107C276.118 83.3717 275.965 84.6465 275.878 85.9266C275.034 96.7729 275.831 118.344 275.912 118.864C275.941 119.043 270.301 118.864 262.477 118.494C259.588 118.361 256.421 118.217 253.116 118.049C236.312 117.223 216.353 116.108 216.353 116.108L215.14 102.609C215.14 102.609 212.626 106.862 204.028 115.166C195.429 123.47 181.682 118.841 183.162 108.399C184.086 101.841 187.958 97.0444 192.65 89.0123C194.1 86.5276 195.632 83.7365 197.169 80.4832C199.226 76.1609 201.214 72.0351 203.132 68.3079C203.97 66.6668 204.796 65.1009 205.6 63.6331C208.616 58.0684 211.32 53.8559 213.499 51.8854C220.046 45.9567 234.076 49.3718 237.815 50.5737C243.384 52.3866 249.164 53.4761 255.012 53.8154C263.304 54.3933 275.895 57.9702 282.563 60.2931C286.41 61.5844 289.95 63.6515 292.965 66.3664L293.017 66.3779Z" fill="#A7CAF0"/>
<path d="M298.599 78.6803C291.341 71.3994 280.321 68.2212 269.261 78.1025C256.398 89.5612 246.529 91.5548 232.059 74.8203C221.594 62.6854 217.966 59.6286 205.6 63.6562C208.616 58.0915 211.32 53.879 213.499 51.9085C220.046 45.9797 234.076 49.3948 237.815 50.5968C243.385 52.4018 249.165 53.4836 255.012 53.8154C263.304 54.3932 275.895 57.9701 282.563 60.2931C286.41 61.5844 289.95 63.6515 292.965 66.3663C295.866 68.6546 297.559 73.2312 298.599 78.6803Z" fill="#C3DCF8"/>
<path d="M202.924 99.506C198.301 104.522 194.147 93.6466 192.65 89.0123C194.1 86.5275 195.632 83.7365 197.169 80.4832C199.226 76.1609 201.214 72.035 203.132 68.3079C206.541 73.5085 201.936 78.2931 201.612 80.6508C200.769 86.9551 209.552 92.306 202.924 99.506Z" fill="#93BEE5"/>
<path d="M173.951 60.8593C181.093 62.3675 192.182 55.6934 192.182 55.6934C192.182 55.6934 198.29 82.9737 199.885 89.0238C201.479 95.0739 211.684 118.772 191.795 119.742C179.03 120.366 178.175 96.1025 177.418 88.1166C176.661 80.1307 173.951 60.8593 173.951 60.8593Z" fill="#A7CAF0"/>
<path d="M178.683 63.9798C184.179 64.367 190.298 60.6687 190.298 60.6687" stroke="#83ADDF" stroke-width="0.75" stroke-linecap="round" stroke-linejoin="round"/>
<path d="M192.182 55.6934C192.182 55.6934 198.29 82.9737 199.885 89.0238C200.757 92.3233 204.19 100.876 203.901 108.128" stroke="#83ADDF" stroke-width="0.75" stroke-linecap="round" stroke-linejoin="round"/>
<path d="M232.059 54.9942C235.619 61.5991 245.061 67.9496 256.456 59.1836C256.456 59.1836 257.681 55.5432 257.554 55.5432C257.427 55.5432 233.672 52.6539 233.672 52.6539L232.059 54.9942Z" fill="white"/>
<path d="M241.438 46.8349C238.502 46.1703 234.249 46.9158 231.314 51.423C228.378 55.9302 228.003 59.6458 228.17 59.6054C228.338 59.5649 232.793 56.7508 234.787 56.9588C236.78 57.1668 241.247 58.4843 241.247 58.4843L241.438 46.8349Z" fill="#FED81D"/>
<path d="M254.665 48.1582C254.665 48.1582 261.154 48.1987 262.021 52.7463C262.888 57.294 260.495 62.7489 257.56 65.2684C254.624 67.7878 256.237 61.6279 245.697 58.7386L254.665 48.1582Z" fill="#FED81D"/>
<path d="M257.832 53.4743C257.832 53.4743 254.226 58.9523 246.194 59.0737C238.161 59.195 236.619 54.4104 236.619 54.4104C237.491 52.2377 238.537 47.6034 239.207 44.3558C239.635 42.3045 239.912 40.8021 239.912 40.8021C239.912 40.8021 241.241 27.9391 255.029 28.7134L255.266 30.8226L257.832 53.4743Z" fill="#B25E47"/>
<path d="M239.207 44.4831C239.635 42.4375 239.912 40.9293 239.912 40.9293L247.76 37.2484C247.76 37.2484 249.002 46.2167 239.207 44.4831Z" fill="#914839"/>
<path d="M215.14 102.609C214.03 89.9425 214.03 79.6857 214.03 79.6857" stroke="#83ADDF" stroke-width="0.75" stroke-linecap="round" stroke-linejoin="round"/>
<path d="M267.534 133.414C266.86 133.169 266.218 132.845 265.621 132.449C261.576 129.797 261.258 124.631 262.477 118.471C263.425 113.756 265.286 108.463 267.1 103.274C269.175 97.3563 271.203 91.5836 271.775 86.9608C271.856 86.3136 271.902 85.6953 271.925 85.1059C272.036 81.5613 272.685 78.0541 273.85 74.7046C277.166 65.3781 284.395 59.5071 292.994 66.3778C295.843 68.6545 297.536 73.2311 298.576 78.6802C298.946 80.6276 299.235 82.6905 299.471 84.7939C300.257 91.9361 300.373 99.6157 300.725 105.336C302.465 133.033 295.825 144.093 267.534 133.414Z" fill="#A7CAF0"/>
<path d="M298.599 78.6802C292.352 72.4163 283.309 69.1861 273.861 74.693C277.178 65.3665 284.407 59.4955 293.005 66.3662C295.866 68.6545 297.559 73.231 298.599 78.6802Z" fill="#C3DCF8"/>
<path d="M275.912 118.841C275.941 119.02 270.301 118.841 262.477 118.471C259.588 118.338 256.422 118.194 253.116 118.026C247.465 115.484 243.952 111.803 246.962 106.527C255.156 92.1904 270.209 112.051 270.995 97.8591C271.527 88.1281 273.884 86.0131 275.878 85.9496C275.034 96.7727 275.814 118.344 275.912 118.841Z" fill="#93BEE5"/>
<path d="M277.837 77.1259C276.714 79.9348 276.053 82.9066 275.878 85.9265C275.127 96.7786 275.831 118.344 275.912 118.864" stroke="#83ADDF" stroke-width="0.75" stroke-linecap="round" stroke-linejoin="round"/>
<path d="M267.534 133.414C266.86 133.169 266.218 132.845 265.621 132.449C272.104 133.842 281.801 135.096 286.071 131.449C292.803 125.717 288.527 118.367 292.248 114.322C295.97 110.277 301.338 108.971 299.495 84.8112C300.28 91.9534 300.396 99.633 300.749 105.354C302.465 133.033 295.825 144.093 267.534 133.414Z" fill="#93BEE5"/>
<path d="M251.319 84.7939C252.348 80.1711 246.535 80.3734 246.535 80.3734C247.049 76.1088 241.397 74.9242 240.091 79.0905C235.498 77.7037 234.047 79.0905 233.377 81.5059L251.319 84.7939Z" fill="#DDDDDD"/>
<path d="M243.483 80.8185C244.24 80.8185 244.853 80.2053 244.853 79.449C244.853 78.6926 244.24 78.0795 243.483 78.0795C242.727 78.0795 242.114 78.6926 242.114 79.449C242.114 80.2053 242.727 80.8185 243.483 80.8185Z" fill="#F9F9F9" stroke="#DDDDDD" stroke-linecap="round" stroke-linejoin="round"/>
<path d="M224.651 78.0735L216.076 124.573L250.123 131.45L259.27 84.8863L224.651 78.0735Z" fill="#F9F9F9" stroke="#DDDDDD" stroke-linecap="round" stroke-linejoin="round"/>
<path d="M235.139 108.885C233.406 113.409 233.302 118.165 234.099 119.754C234.099 119.754 237.347 120.361 240.594 111.548L235.139 108.885Z" fill="#93BEE5"/>
<path d="M239.548 100.136C231.759 97.4603 228.038 95.8423 226.633 95.461C225.229 95.0796 220.156 94.652 219.347 95.461C218.538 96.2699 218.48 97.2985 218.769 98.3502C219.058 99.4019 218.191 100.217 218.07 101.303C217.948 102.389 219.254 102.719 218.988 103.799C218.723 104.88 217.833 106.065 218.445 107.266C219.058 108.468 217.867 109.693 218.988 111.15C220.109 112.606 231.597 113.311 234.117 112.773L239.063 114.987C239.063 114.987 247.765 106.047 239.548 100.136Z" fill="#B25E47"/>
<path d="M226.633 95.461C225.229 95.0854 220.156 94.652 219.347 95.461C218.538 96.27 218.48 97.2986 218.769 98.3503C219.058 99.402 218.191 100.217 218.07 101.303C217.948 102.389 219.254 102.719 218.988 103.799C218.723 104.88 217.833 106.065 218.445 107.267C219.058 108.468 217.867 109.693 218.988 111.15" stroke="#934735" stroke-width="0.75" stroke-linecap="round" stroke-linejoin="round"/>
<path d="M286.077 131.444C284.049 135.107 278.975 136.87 269.319 133.963C266.719 133.177 264.211 132.363 261.807 131.536C257.832 130.173 254.162 128.78 250.874 127.445C245.145 125.168 239.537 122.599 234.07 119.748C235.522 118.147 236.695 116.313 237.537 114.322C238.063 113.144 238.496 111.927 238.832 110.682C239.729 107.24 239.97 103.661 239.543 100.13C240.854 100.523 242.264 100.928 243.749 101.332C247.338 102.314 251.36 103.331 255.433 104.4C267.643 107.619 280.345 111.306 283.436 115.888C283.719 116.31 284.014 116.732 284.245 117.171C284.343 117.344 284.447 117.518 284.54 117.697C284.568 117.741 284.593 117.787 284.615 117.835C284.73 118.044 284.84 118.257 284.944 118.465C285.141 118.841 285.314 119.217 285.482 119.592C287.302 123.764 287.816 128.306 286.077 131.444Z" fill="#A7CAF0"/>
<path d="M239.548 100.136C253.532 104.348 278.888 109.15 283.465 115.894C284.259 117.063 284.943 118.303 285.511 119.598" stroke="#83ADDF" stroke-width="0.75" stroke-linecap="round" stroke-linejoin="round"/>
<path d="M243.749 101.332C244.616 110.098 240.091 118.512 240.091 118.512" stroke="#83ADDF" stroke-width="0.75" stroke-linecap="round" stroke-linejoin="round"/>
<path d="M286.071 131.45C284.043 135.113 278.969 136.876 269.313 133.969C266.713 133.183 264.205 132.368 261.801 131.542C267.47 133.033 280.824 135.916 286.071 131.45Z" fill="#93BEE5"/>
<path d="M255.012 28.8233L255.248 30.9266C250.366 38.5427 243.691 40.9408 239.895 40.9061C233.62 39.3401 231.476 33.6888 231.112 27.6156C231.022 26.1762 231.022 24.7326 231.112 23.2932C231.392 19.1796 232.085 15.1045 233.18 11.1295C233.18 11.1295 252.03 2.35771 253.336 19.9648C253.336 19.9648 257.381 19.2252 258.126 23.7208C258.762 27.4538 255.012 28.8233 255.012 28.8233Z" fill="#B25E47"/>
<path d="M234.14 23.3162C234.554 23.3162 234.891 22.9799 234.891 22.5651C234.891 22.1502 234.554 21.8138 234.14 21.8138C233.725 21.8138 233.388 22.1502 233.388 22.5651C233.388 22.9799 233.725 23.3162 234.14 23.3162Z" fill="#683F1D"/>
<path d="M239.387 22.357C239.801 22.357 240.138 22.0207 240.138 21.6058C240.138 21.1909 239.801 20.8546 239.387 20.8546C238.972 20.8546 238.635 21.1909 238.635 21.6058C238.635 22.0207 238.972 22.357 239.387 22.357Z" fill="#683F1D"/>
<path d="M238.254 17.5554C238.335 18.5839 241.848 18.9827 242.05 18.399C242.334 17.5207 238.052 15.1457 238.254 17.5554Z" fill="#604730"/>
<path d="M231.545 19.0923C231.545 19.6701 235.365 19.907 235.226 17.9366C235.133 16.5093 231.626 17.5436 231.545 19.0923Z" fill="#604730"/>
<path d="M252.359 25.5469C253.931 23.2355 256.404 23.4782 256.676 23.9174" stroke="#934735" stroke-width="0.75" stroke-linecap="round" stroke-linejoin="round"/>
<path d="M253.03 24.7551C255.341 23.3913 256.612 26.4482 253.677 26.4482" stroke="#934735" stroke-width="0.75" stroke-linecap="round" stroke-linejoin="round"/>
<path d="M236.168 20.381C236.804 21.6118 236.746 22.3572 236.33 23.1489C235.914 23.9405 234.637 25.7434 235.301 27.3441" stroke="#934735" stroke-width="0.75" stroke-linecap="round" stroke-linejoin="round"/>
<path d="M240.282 27.6156C239.704 29.5283 237.428 30.7244 236.37 30.5049C236.37 30.5049 237.462 33.4692 239.387 32.7122C241.6 31.8166 240.282 27.6156 240.282 27.6156Z" fill="white" stroke="#934735" stroke-width="0.75" stroke-linecap="round" stroke-linejoin="round"/>
<path d="M252.013 28.2684C252.445 28.5735 252.938 28.7828 253.458 28.8825C253.979 28.9821 254.514 28.9698 255.029 28.8463" stroke="#934735" stroke-width="0.75" stroke-linecap="round" stroke-linejoin="round"/>
<path d="M258.866 18.1677C261.027 21.1379 257.774 22.4265 257.774 22.4265C257.446 21.9401 257.011 21.535 256.502 21.2419C256.183 21.0534 255.826 20.938 255.457 20.9037C255.088 20.8695 254.716 20.9173 254.367 21.0438C254.019 21.1702 253.703 21.3722 253.441 21.6352C253.18 21.8983 252.98 22.2158 252.856 22.5652C248.424 22.6576 250.337 19.1963 250.337 19.1963C246.361 20.7854 246.234 16.7115 247.945 14.874C244.841 18.3411 240.9 14.874 241.542 11.7362C240.444 15.1629 236.532 15.2958 237.052 12.4528C236.716 13.0369 236.309 13.5766 235.839 14.0592C233.152 16.7635 230.736 13.8743 231.753 11.7478C227.708 15.5963 225.975 11.2913 229.817 8.97987C226.772 6.48356 230.395 2.924 232.828 4.77312C232.25 0.341006 236.827 0.150317 238.832 2.73331C239.618 -2.13219 245.697 0.525918 245.939 2.83154C250.418 -0.300408 253.885 2.00522 253.451 7.09608C255.26 4.67489 259.137 6.0964 257.647 12.2967C261.368 12.0309 261.998 16.648 258.866 18.1677Z" fill="#604730"/>
<path d="M256.503 21.2419C256.183 21.0535 255.826 20.938 255.457 20.9037C255.088 20.8695 254.716 20.9173 254.367 21.0438C254.019 21.1702 253.703 21.3722 253.441 21.6353C253.18 21.8983 252.98 22.2158 252.856 22.5652C248.424 22.6576 250.337 19.1963 250.337 19.1963C246.361 20.7854 246.234 16.7115 247.945 14.874C244.841 18.3411 240.901 14.874 241.542 11.7362C240.444 15.1629 236.532 15.2958 237.052 12.4528C236.716 13.0369 236.309 13.5766 235.839 14.0592C234.752 10.7712 237.185 6.43158 240.901 8.39627C241.392 5.74971 247.465 4.0335 247.43 10.7077C249.678 7.56994 254.769 8.64474 252.359 14.6313C254.255 13.2155 258.612 15.6656 256.503 21.2419Z" fill="#473526"/>
<path d="M248.337 22.4034C248.875 23.4782 247.864 25.0673 246.084 25.963C244.304 26.8587 242.42 26.7084 241.883 25.6336C241.345 24.5588 242.351 22.9697 244.136 22.074C245.922 21.1784 247.8 21.3286 248.337 22.4034Z" fill="#A0503D"/>
<path d="M233.469 26.4888C233.192 27.2457 232.262 27.6445 231.118 27.6445C231.028 26.2051 231.028 24.7615 231.118 23.3221C232.816 24.0445 233.862 25.414 233.469 26.4888Z" fill="#A0503D"/>
<path d="M249.152 147.533V233.795H126.151V147.533C126.147 146.39 126.369 145.258 126.805 144.201C127.241 143.144 127.881 142.184 128.69 141.375C129.498 140.567 130.458 139.927 131.515 139.491C132.572 139.055 133.704 138.833 134.848 138.837H240.456C241.599 138.833 242.731 139.055 243.788 139.491C244.845 139.927 245.805 140.567 246.614 141.375C247.422 142.184 248.062 143.144 248.498 144.201C248.934 145.258 249.156 146.39 249.152 147.533Z" stroke="#EDEDED" stroke-width="2" stroke-linecap="round" stroke-linejoin="round"/>
<path d="M249.152 147.533V147.926H126.151V147.533C126.147 146.39 126.369 145.258 126.805 144.201C127.241 143.144 127.881 142.184 128.69 141.375C129.498 140.567 130.458 139.927 131.515 139.491C132.572 139.055 133.704 138.833 134.848 138.837H240.456C241.599 138.833 242.731 139.055 243.788 139.491C244.845 139.927 245.805 140.567 246.614 141.375C247.422 142.184 248.062 143.144 248.498 144.201C248.934 145.258 249.156 146.39 249.152 147.533Z" stroke="#DDDDDD" stroke-width="2" stroke-linecap="round" stroke-linejoin="round"/>
<path d="M232.504 143.378C232.504 143.692 232.411 143.998 232.237 144.258C232.063 144.518 231.816 144.721 231.527 144.841C231.238 144.961 230.919 144.992 230.612 144.931C230.305 144.87 230.023 144.719 229.801 144.498C229.58 144.277 229.429 143.994 229.368 143.687C229.307 143.38 229.338 143.062 229.458 142.773C229.578 142.483 229.781 142.236 230.041 142.062C230.302 141.888 230.608 141.795 230.921 141.795C231.341 141.795 231.744 141.962 232.041 142.259C232.337 142.556 232.504 142.959 232.504 143.378V143.378Z" fill="#EDEDED"/>
<path d="M236.081 144.962C236.956 144.962 237.664 144.253 237.664 143.378C237.664 142.504 236.956 141.795 236.081 141.795C235.207 141.795 234.498 142.504 234.498 143.378C234.498 144.253 235.207 144.962 236.081 144.962Z" fill="#DDDDDD"/>
<path d="M241.247 144.962C242.122 144.962 242.83 144.253 242.83 143.378C242.83 142.504 242.122 141.795 241.247 141.795C240.373 141.795 239.664 142.504 239.664 143.378C239.664 144.253 240.373 144.962 241.247 144.962Z" fill="#EDEDED"/>
<path d="M133.403 189.208C129.89 178.807 129.063 173.19 130.023 172.387C130.6 171.878 131.565 171.503 131.641 170.474C131.716 169.445 130.537 165.99 134.651 165.181C134.651 165.181 136.044 157.027 137.367 153.208C137.367 153.208 144.717 182.464 145.232 184.66C145.746 186.856 135.789 196.304 133.403 189.208Z" fill="#FEBD9D"/>
<path d="M134.651 165.181C134.382 166.49 134.189 167.813 134.073 169.145" stroke="#EF8A66" stroke-width="0.75" stroke-linecap="round" stroke-linejoin="round"/>
<path d="M129.768 175.461C129.554 173.727 129.658 172.699 130.028 172.387C130.606 171.878 131.571 171.503 131.646 170.474C131.721 169.445 130.543 165.99 134.657 165.181C134.657 165.181 136.05 157.027 137.373 153.208" stroke="#EF8A66" stroke-width="0.75" stroke-linecap="round" stroke-linejoin="round"/>
<path d="M169.14 135.708L136.938 144.79C135.058 145.32 133.964 147.274 134.495 149.153L140.745 171.316C141.275 173.196 143.229 174.29 145.109 173.76L177.31 164.678C179.19 164.148 180.284 162.194 179.754 160.315L173.503 138.152C172.973 136.272 171.019 135.178 169.14 135.708Z" fill="#F9F9F9" stroke="#DDDDDD" stroke-linecap="round" stroke-linejoin="round"/>
<path d="M167.549 138.944L139.997 146.715C138.753 147.066 138.029 148.358 138.379 149.602L143.824 168.907C144.175 170.151 145.467 170.875 146.711 170.524L174.263 162.753C175.507 162.402 176.231 161.11 175.881 159.866L170.436 140.561C170.085 139.317 168.793 138.593 167.549 138.944Z" stroke="#EDEDED" stroke-linecap="round" stroke-linejoin="round"/>
<path d="M159.562 157.623C159.571 157.786 159.571 157.95 159.562 158.114C159.473 159.357 159.038 160.551 158.308 161.561C157.578 162.571 156.581 163.358 155.429 163.833C154.277 164.308 153.015 164.453 151.785 164.252C150.555 164.05 149.405 163.509 148.465 162.691C147.525 161.872 146.832 160.808 146.463 159.618C146.094 158.427 146.064 157.157 146.376 155.951C146.688 154.744 147.33 153.648 148.231 152.786C149.131 151.924 150.253 151.33 151.472 151.07C151.927 150.967 152.393 150.916 152.859 150.919C153.74 150.919 154.613 151.091 155.427 151.428C156.241 151.764 156.981 152.258 157.605 152.88C158.228 153.503 158.723 154.242 159.061 155.056C159.399 155.869 159.573 156.742 159.574 157.623H159.562Z" stroke="#EDEDED" stroke-linecap="round" stroke-linejoin="round"/>
<path d="M157.924 157.736C157.93 157.863 157.93 157.99 157.924 158.117C157.854 159.08 157.517 160.005 156.951 160.788C156.385 161.571 155.612 162.181 154.718 162.549C153.825 162.918 152.846 163.03 151.892 162.874C150.938 162.717 150.047 162.298 149.318 161.664C148.589 161.03 148.051 160.205 147.765 159.282C147.478 158.36 147.455 157.375 147.697 156.44C147.939 155.505 148.437 154.656 149.136 153.988C149.834 153.319 150.704 152.859 151.65 152.657C152.003 152.577 152.363 152.538 152.725 152.541C153.409 152.54 154.085 152.674 154.717 152.935C155.348 153.196 155.922 153.578 156.406 154.061C156.889 154.543 157.273 155.116 157.535 155.747C157.797 156.377 157.932 157.053 157.933 157.736H157.924Z" stroke="#EDEDED" stroke-linecap="round" stroke-linejoin="round"/>
<path d="M167.184 155.161C168.45 154.716 167.282 154.069 168.12 153.71C169.345 153.19 169.744 145.62 164.301 147.175C160.175 148.33 163.18 155.062 165.202 154.444C165.751 154.277 165.734 155.675 167.184 155.161Z" fill="#F9F9F9" stroke="#DDDDDD" stroke-linecap="round" stroke-linejoin="round"/>
<path d="M165.699 149.614C165.162 150.579 165.589 151.255 166.468 151.578C167.941 152.127 165.751 153.855 165.271 152.907C164.746 151.867 167.623 152.561 167.005 154.895" stroke="#DDDDDD" stroke-linecap="round" stroke-linejoin="round"/>
<path d="M166.537 156.709C166.907 157.594 167.363 157.75 168.062 157.547C168.762 157.345 168.791 156.86 168.606 156.155L166.537 156.709Z" fill="#F9F9F9" stroke="#EDEDED" stroke-linecap="round" stroke-linejoin="round"/>
<path d="M165.942 156.149C166.277 155.571 168.253 155.219 168.53 155.282C168.808 155.346 169.056 156.149 168.692 156.357C167.929 156.698 167.115 156.91 166.283 156.987C166.199 156.962 166.122 156.919 166.058 156.861C165.993 156.803 165.943 156.731 165.91 156.65C165.877 156.57 165.863 156.483 165.869 156.396C165.874 156.309 165.899 156.225 165.942 156.149Z" fill="#F9F9F9" stroke="#EDEDED" stroke-linecap="round" stroke-linejoin="round"/>
<path d="M165.56 155.074C165.919 154.496 168.045 154.138 168.317 154.207C168.675 154.294 168.895 155.074 168.496 155.276C167.677 155.619 166.809 155.831 165.924 155.906C165.84 155.884 165.761 155.843 165.695 155.787C165.628 155.73 165.575 155.659 165.54 155.579C165.505 155.499 165.489 155.411 165.492 155.324C165.496 155.237 165.519 155.151 165.56 155.074Z" fill="#F9F9F9" stroke="#EDEDED" stroke-linecap="round" stroke-linejoin="round"/>
<path d="M158.782 149.105L160.539 149.22" stroke="#EDEDED" stroke-linecap="round" stroke-linejoin="round"/>
<path d="M162.238 143.754L163.006 145.447" stroke="#EDEDED" stroke-linecap="round" stroke-linejoin="round"/>
<path d="M168.242 144.199L167.623 145.447" stroke="#EDEDED" stroke-linecap="round" stroke-linejoin="round"/>
<path d="M138.679 169.717C136.234 174.091 138.17 179.332 141.123 180.76C144.076 182.187 145.295 173.126 145.648 170.838C146 168.55 146.006 165.088 146.26 163.355C146.514 161.621 144.885 160.252 143.816 162.898C142.747 165.545 142.238 167.163 142.238 167.163L138.679 169.717Z" fill="#FEBD9D"/>
<path d="M145.648 170.838C146.006 168.527 146.006 165.088 146.26 163.355C146.514 161.621 144.885 160.252 143.816 162.898C142.747 165.545 142.238 167.163 142.238 167.163L138.679 169.717" stroke="#EF8A66" stroke-width="0.75" stroke-linecap="round" stroke-linejoin="round"/>
<path d="M217.602 152.699L215.637 177.547L194.118 179.575C195.961 173.721 197.445 167.76 198.561 161.725C199.047 159.119 199.486 156.351 199.821 153.526L207.749 153.162L217.602 152.699Z" fill="#FEBD9D"/>
<path d="M209.512 155.502C208.633 158.911 203.82 161.327 198.596 161.714C199.082 159.108 199.521 156.34 199.856 153.514L207.784 153.15C209.026 153.699 209.754 154.462 209.512 155.502Z" fill="#F4A789"/>
<path d="M251.024 179.563V237.377H246.54C246.54 237.377 243.894 226.889 232.499 204.908C232.499 204.908 232.279 205.885 231.834 207.578C231.222 209.924 230.176 213.634 228.691 218.043C226.187 225.625 222.963 232.951 219.064 239.92C210.842 243.442 202.17 245.803 193.297 246.935C193.054 246.935 192.806 246.999 192.558 247.022C183.716 248.114 173.454 248.12 163.041 245.438C156.575 243.801 150.404 241.163 144.752 237.62C145.064 237.112 159.123 209.589 163.503 200.736C163.844 200.048 164.185 199.378 164.532 198.713C168.646 190.849 173.581 184.735 186.906 179.563C189.998 178.373 192.714 177.316 195.094 176.391C203.872 172.988 208.246 171.306 210.927 170.509C212.823 169.946 214.624 169.42 216.33 168.931C232.753 164.216 240.901 163.112 247.806 173.646C249.019 175.539 250.094 177.517 251.024 179.563V179.563Z" fill="#FED81D"/>
<path d="M247.806 173.646C242.12 173.3 234.966 174.866 230.921 183.77C223.449 200.204 208.703 207.086 197.891 196.552C189.397 188.283 174.922 189.358 164.532 198.713C168.646 190.849 173.581 184.735 186.906 179.563C189.998 178.373 192.714 177.316 195.094 176.391C203.872 172.988 208.246 171.306 210.927 170.509C212.823 169.946 214.624 169.42 216.33 168.931C232.753 164.216 240.901 163.112 247.806 173.646Z" fill="#FFE05C"/>
<path d="M251.025 221.752V237.354H246.54C246.54 237.354 243.894 226.866 232.499 204.885C233.152 202.348 233.654 199.904 234.059 197.737C241.421 200.961 242.051 207.786 241.247 211.64C240.502 215.228 244.287 224.023 251.025 221.752Z" fill="#FCC71F"/>
<path d="M189.72 208.855C188.565 214.899 183.532 225.497 174.546 240.636C173.165 242.832 171.597 244.905 169.86 246.831C167.564 246.485 165.289 246.023 163.041 245.444L165.884 237.383C167.496 231.148 170.507 228.369 176.99 227.12C182.746 226.005 177.926 208.404 189.72 208.855Z" fill="#FCC71F"/>
<path d="M160.77 256.134C160.77 256.134 165.641 251.673 169.86 246.825C171.597 244.899 173.165 242.827 174.546 240.631C183.532 225.497 188.559 214.899 189.72 208.849C190.082 206.977 190.073 205.542 189.691 204.544" stroke="#F7AD2B" stroke-width="0.75" stroke-linecap="round" stroke-linejoin="round"/>
<path d="M235.203 189.826C235.203 189.826 234.897 193.149 234.047 197.76C233.654 199.927 233.14 202.383 232.487 204.908" stroke="#F7AD2B" stroke-width="0.75" stroke-linecap="round" stroke-linejoin="round"/>
<path d="M165.878 224.405C166.092 238.302 150.23 252.315 141.533 235.118C137.899 227.935 128.821 194.414 129.456 189.826C130.034 185.741 141.984 176.645 146.89 178.425C146.89 178.425 148.941 183.822 151.761 190.71C155.35 199.476 160.181 210.675 163.578 216.234C165.063 218.702 165.857 221.524 165.878 224.405V224.405Z" fill="#FED81D"/>
<path d="M159.562 208.595C157.679 212.322 155.517 216.615 153.402 220.73C151.964 218.1 151.704 214.229 154.766 210.617C158.661 206.035 146.468 198.037 151.761 190.699C154.084 196.385 156.927 203.07 159.562 208.595Z" fill="#FCC71F"/>
<path d="M159.637 208.45C159.637 208.496 159.585 208.543 159.562 208.595C157.678 212.322 155.517 216.615 153.402 220.73L151.42 224.618" stroke="#F7AD2B" stroke-width="0.75" stroke-linecap="round" stroke-linejoin="round"/>
<path d="M194.384 140.807C191.494 151.237 188.923 156.946 206.715 158.114C206.715 158.114 218.006 145.401 216.469 126.944C216.469 126.944 206.409 118.855 197.695 134.612C197.695 134.612 194.499 135.838 194.135 136.271C193.771 136.704 194.014 139.397 194.384 140.807Z" fill="#FEBD9D"/>
<path d="M197.695 134.613C197.695 134.613 194.499 135.838 194.135 136.271C193.771 136.704 194.014 139.397 194.384 140.807" stroke="#EF8A66" stroke-width="0.75" stroke-linecap="round" stroke-linejoin="round"/>
<path d="M200.127 136.849C200.542 136.849 200.879 136.513 200.879 136.098C200.879 135.683 200.542 135.346 200.127 135.346C199.713 135.346 199.376 135.683 199.376 136.098C199.376 136.513 199.713 136.849 200.127 136.849Z" fill="#5C1A55"/>
<path d="M200.78 130.019C202.271 128.984 204.889 135.005 202.994 134.982C202.231 134.982 198.966 131.278 200.78 130.019Z" fill="#BF8228"/>
<path d="M232.499 180.95C231.62 189.526 227.425 192.941 228.24 195.836C229.055 198.731 231.06 198.101 231.06 198.101C231.06 198.101 229.465 202.724 223.345 200.88C223.345 200.88 217.995 209.051 212.944 203.192C208.379 209.427 198.758 210.704 198.463 202.152C198.463 202.152 202.179 203.082 204.074 200.672C205.969 198.263 206.386 194.247 204.328 192.132C202.271 190.017 199.284 187.902 199.093 184.371C198.902 180.841 201.508 174.646 205.293 170.041C205.293 170.041 190.188 165.782 189.073 178.708L186.057 179.864C186.057 179.864 182.838 178.31 182.913 173.115C182.988 167.92 187.732 164.106 192.898 164.198C198.064 164.291 210.529 162.049 204.455 146.314C204.455 146.314 209.413 148.128 210.708 144.159C212.002 140.189 207.512 138.074 204.929 140.293C204.929 140.293 202.814 137.028 209.084 129.839C208.385 127.563 205.964 126.95 207.004 124.639C207.847 122.778 213.141 122.778 217.116 123.581C217.97 123.751 218.81 123.983 219.63 124.275C221.907 125.084 223.891 126.555 225.327 128.499C226.189 129.649 226.756 130.992 226.98 132.411C227.551 132.176 228.166 132.066 228.783 132.087C230.031 132.134 231.557 132.833 232.1 135.751C232.892 139.975 229.997 142.107 228.055 143.084C227.515 143.352 226.95 143.567 226.368 143.725C226.792 145.048 226.988 146.434 226.945 147.822V147.822C226.921 148.728 226.799 149.629 226.581 150.509C225.755 153.809 223.964 159.553 224.755 163.546C224.843 164.029 224.982 164.502 225.171 164.955C226.795 168.92 233.377 172.375 232.499 180.95Z" fill="#BF8228"/>
<path d="M228.032 143.113C227.492 143.381 226.926 143.596 226.344 143.754C226.344 143.754 223.634 144.413 222.56 139.675C221.699 135.878 223.831 133.318 226.98 132.44C227.551 132.205 228.166 132.095 228.783 132.116C223.085 137.08 225.853 141.113 228.032 143.113Z" fill="#B57724"/>
<path d="M232.499 180.95C231.62 189.526 227.425 192.941 228.24 195.836C229.055 198.731 231.06 198.101 231.06 198.101C231.06 198.101 229.465 202.724 223.345 200.88C223.345 200.88 217.995 209.051 212.944 203.192C208.379 209.427 198.758 210.704 198.463 202.152C198.463 202.152 202.179 203.082 204.074 200.672C205.969 198.263 206.386 194.247 204.328 192.132C202.271 190.017 199.284 187.902 199.093 184.371C198.902 180.841 201.508 174.646 205.293 170.041C205.293 170.041 190.188 165.782 189.073 178.708L186.057 179.864C186.057 179.864 182.838 178.31 182.913 173.115C182.988 167.92 187.732 164.106 192.898 164.198C198.064 164.291 210.529 162.049 204.455 146.314C204.455 146.314 209.413 148.128 210.708 144.159C212.002 140.189 207.512 138.074 204.929 140.293C204.929 140.293 202.814 137.028 209.084 129.839C208.385 127.563 205.964 126.95 207.004 124.639C207.847 122.778 213.141 122.778 217.116 123.581C214.458 125.211 212.678 127.771 214.158 131.775C217.792 141.599 216.769 146.326 213.62 150.521C210.471 154.716 206.911 163.233 209.939 170.041C212.967 176.848 208.518 173.716 209.853 187.185C211.187 200.655 228.228 192.45 227.697 181.476C227.217 171.56 221.202 168.226 224.709 163.563C224.796 164.047 224.936 164.519 225.125 164.973C226.795 168.92 233.377 172.375 232.499 180.95Z" fill="#B57724"/>
<path d="M204.843 142.668C206.495 141.639 208.061 141.732 208.969 142.385" stroke="#EF8A66" stroke-width="0.75" stroke-linecap="round" stroke-linejoin="round"/>
<path d="M204.987 144.28C207.42 145.326 207.876 142.194 205.889 142.153" stroke="#EF8A66" stroke-width="0.75" stroke-linecap="round" stroke-linejoin="round"/>
<path d="M217.538 128.655C220.202 129.487 224.189 133.676 224.189 133.676" stroke="#9B621F" stroke-width="0.75" stroke-linecap="round" stroke-linejoin="round"/>
<path d="M226.98 132.44C223.831 133.312 221.699 135.878 222.56 139.675C223.634 144.413 226.344 143.754 226.344 143.754" stroke="#9B621F" stroke-width="0.75" stroke-linecap="round" stroke-linejoin="round"/>
<path d="M223.513 134.618C225.952 133.642 228.864 133.226 229.973 136.311C231.083 139.397 229.459 141.789 226.98 143.552" stroke="#9B621F" stroke-width="0.75" stroke-linecap="round" stroke-linejoin="round"/>
<path d="M211.245 136.502C216.215 137.993 222.508 137.6 222.508 137.6" stroke="#9B621F" stroke-width="0.75" stroke-linecap="round" stroke-linejoin="round"/>
<path d="M212.615 145.124C216.954 146.193 222.438 143.043 223.305 141.795" stroke="#9B621F" stroke-width="0.75" stroke-linecap="round" stroke-linejoin="round"/>
<path d="M222.415 138.837C223.12 136.895 225.114 135.618 226.593 137.536C228.072 139.455 225.853 141.489 224.056 139.368" stroke="#9B621F" stroke-width="0.75" stroke-linecap="round" stroke-linejoin="round"/>
<path d="M205.299 170.07C209.506 165.106 213.054 161.142 211.251 153.976" stroke="#9B621F" stroke-width="0.75" stroke-linecap="round" stroke-linejoin="round"/>
<path d="M212.979 203.221C215.527 199.326 211.592 193.605 210.991 189.832C210.39 186.059 210.257 181.326 214.995 176.189" stroke="#9B621F" stroke-width="0.75" stroke-linecap="round" stroke-linejoin="round"/>
<path d="M219.376 159.194C222.912 168.191 223.467 169.642 221.548 176.38C219.63 183.117 218.474 186.457 221.548 191.265C224.963 196.593 223.894 198.523 223.34 200.88" stroke="#9B621F" stroke-width="0.75" stroke-linecap="round" stroke-linejoin="round"/>
<path d="M203.693 140.039C203.918 141.264 202.745 142.506 201.081 142.806C199.417 143.107 197.885 142.362 197.66 141.131C197.435 139.9 198.608 138.663 200.272 138.363C201.936 138.062 203.467 138.808 203.693 140.039Z" fill="#F4AF90"/>
<path d="M249.152 162.026V233.795H126.151" stroke="#EDEDED" stroke-width="2" stroke-linecap="round" stroke-linejoin="round"/>
<path fill-rule="evenodd" clip-rule="evenodd" d="M146.954 161.669C147.269 162.124 147.64 162.54 148.061 162.906C149.001 163.725 150.15 164.265 151.38 164.467C152.61 164.669 153.872 164.524 155.025 164.048C156.177 163.573 157.174 162.786 157.904 161.776C158.634 160.766 159.068 159.572 159.158 158.329C159.167 158.165 159.167 158.001 159.158 157.838H159.17C159.169 156.957 158.994 156.085 158.657 155.271C158.319 154.457 157.824 153.718 157.2 153.096C156.577 152.473 155.837 151.98 155.023 151.643C154.779 151.543 154.53 151.457 154.278 151.385L153.893 153.009C154.16 153.073 154.422 153.157 154.677 153.262C155.308 153.523 155.882 153.906 156.365 154.388C156.849 154.87 157.233 155.443 157.495 156.074C157.757 156.704 157.892 157.38 157.892 158.063H157.884C157.89 158.19 157.89 158.317 157.884 158.444C157.814 159.407 157.477 160.333 156.911 161.116C156.345 161.898 155.572 162.508 154.678 162.877C153.784 163.245 152.806 163.357 151.852 163.201C150.898 163.045 150.007 162.626 149.277 161.991C148.89 161.654 148.557 161.264 148.287 160.833L146.954 161.669Z" fill="#4DD12C"/>
</svg>
