<svg width="116" height="60" viewBox="0 0 116 60" fill="none" xmlns="http://www.w3.org/2000/svg">
<circle cx="40.2322" cy="11.2453" r="6.02635" transform="rotate(-60 40.2322 11.2453)" fill="#D8D8D8"/>
<rect x="8.91116" y="23.7809" width="25.8144" height="10.0439" rx="5.02196" transform="rotate(-30 8.91116 23.7809)" fill="#D8D8D8"/>
<circle cx="40.7158" cy="53.0086" r="6.02635" fill="#63B83C"/>
<rect x="14.4262" y="31.825" width="25.8144" height="10.0439" rx="5.02196" transform="rotate(30 14.4262 31.825)" fill="#63B83C"/>
<circle cx="6.02636" cy="33.4104" r="6.02635" transform="rotate(-180 6.02636 33.4104)" fill="#63B83C"/>
<ellipse cx="5.76471" cy="33.1487" rx="2.5152" ry="2.5152" transform="rotate(-180 5.76471 33.1487)" fill="white"/>
<ellipse cx="40.5153" cy="10.9662" rx="2.5152" ry="2.5152" transform="rotate(-180 40.5153 10.9662)" fill="white"/>
<ellipse cx="40.9775" cy="53.2703" rx="2.5152" ry="2.5152" transform="rotate(-180 40.9775 53.2703)" fill="white"/>
<path d="M42.9663 35.1012H39.8198V32.9261H42.9663C43.4305 32.9261 43.8031 32.8488 44.0839 32.694C44.3704 32.5393 44.5796 32.3272 44.7115 32.0579C44.849 31.7828 44.9178 31.4733 44.9178 31.1294C44.9178 30.7741 44.849 30.4445 44.7115 30.1408C44.5796 29.8313 44.3704 29.582 44.0839 29.3928C43.8031 29.2037 43.4305 29.1091 42.9663 29.1091H40.8343V39.4512H38.0317V26.9341H42.9663C43.9635 26.9341 44.8175 27.1147 45.5282 27.4757C46.2446 27.8368 46.7919 28.3325 47.1702 28.963C47.5542 29.5877 47.7462 30.3041 47.7462 31.1122C47.7462 31.9203 47.5542 32.6224 47.1702 33.2184C46.7919 33.8145 46.2446 34.2787 45.5282 34.6111C44.8175 34.9378 43.9635 35.1012 42.9663 35.1012ZM52.7059 32.3158V39.4512H50.0236V30.1494H52.5425L52.7059 32.3158ZM55.4827 30.0806L55.4397 32.5823C55.325 32.5651 55.176 32.5507 54.9926 32.5393C54.8092 32.5221 54.6516 32.5135 54.5198 32.5135C54.1759 32.5135 53.8779 32.5565 53.6257 32.6424C53.3793 32.7227 53.173 32.843 53.0068 33.0035C52.8463 33.164 52.7259 33.3646 52.6457 33.6053C52.5654 33.8403 52.5253 34.1125 52.5253 34.422L52.0181 34.1727C52.0181 33.5594 52.0783 32.9978 52.1986 32.4877C52.319 31.9776 52.4938 31.5363 52.7231 31.1638C52.9523 30.7855 53.2331 30.4932 53.5656 30.2869C53.898 30.0806 54.2762 29.9774 54.7003 29.9774C54.8379 29.9774 54.9783 29.986 55.1216 30.0032C55.2649 30.0204 55.3852 30.0462 55.4827 30.0806ZM56.6082 34.8948V34.7143C56.6082 34.0323 56.7056 33.4047 56.9005 32.8316C57.0953 32.2527 57.3819 31.7512 57.7601 31.3271C58.1384 30.903 58.6026 30.5735 59.1528 30.3385C59.703 30.0978 60.3335 29.9774 61.0441 29.9774C61.7663 29.9774 62.4024 30.0978 62.9526 30.3385C63.5086 30.5735 63.9757 30.903 64.3539 31.3271C64.7322 31.7512 65.0188 32.2527 65.2136 32.8316C65.4085 33.4047 65.5059 34.0323 65.5059 34.7143V34.8948C65.5059 35.5711 65.4085 36.1987 65.2136 36.7775C65.0188 37.3507 64.7322 37.8522 64.3539 38.282C63.9757 38.7061 63.5114 39.0357 62.9612 39.2706C62.411 39.5056 61.7777 39.6231 61.0613 39.6231C60.3507 39.6231 59.7174 39.5056 59.1614 39.2706C58.6055 39.0357 58.1384 38.7061 57.7601 38.282C57.3819 37.8522 57.0953 37.3507 56.9005 36.7775C56.7056 36.1987 56.6082 35.5711 56.6082 34.8948ZM59.299 34.7143V34.8948C59.299 35.2616 59.3276 35.6055 59.3849 35.9265C59.448 36.2474 59.5483 36.5282 59.6858 36.7689C59.8234 37.0097 60.0039 37.1988 60.2274 37.3363C60.4567 37.4682 60.7347 37.5341 61.0613 37.5341C61.388 37.5341 61.6631 37.4682 61.8866 37.3363C62.1102 37.1988 62.2907 37.0097 62.4282 36.7689C62.5658 36.5282 62.6632 36.2474 62.7205 35.9265C62.7836 35.6055 62.8151 35.2616 62.8151 34.8948V34.7143C62.8151 34.3532 62.7836 34.0151 62.7205 33.6999C62.6632 33.3789 62.5658 33.0952 62.4282 32.8488C62.2907 32.6023 62.1073 32.4103 61.878 32.2728C61.6545 32.1352 61.3766 32.0665 61.0441 32.0665C60.7232 32.0665 60.451 32.1352 60.2274 32.2728C60.0039 32.4103 59.8234 32.6023 59.6858 32.8488C59.5483 33.0952 59.448 33.3789 59.3849 33.6999C59.3276 34.0151 59.299 34.3532 59.299 34.7143ZM73.4831 30.1494H75.9246V39.1159C75.9246 39.9698 75.7298 40.6949 75.3401 41.2909C74.9561 41.887 74.4202 42.3397 73.7324 42.6492C73.0447 42.9587 72.2395 43.1134 71.3167 43.1134C70.9155 43.1134 70.4972 43.059 70.0616 42.9501C69.626 42.8469 69.2162 42.6893 68.8322 42.4773C68.4482 42.2709 68.1273 42.0073 67.8694 41.6864L69.0128 40.1045C69.2764 40.4026 69.5916 40.6433 69.9584 40.8267C70.3252 41.0158 70.7436 41.1104 71.2136 41.1104C71.6434 41.1104 72.0073 41.033 72.3054 40.8783C72.6034 40.7235 72.8298 40.4971 72.9845 40.1991C73.145 39.9011 73.2252 39.54 73.2252 39.1159V32.3244L73.4831 30.1494ZM67.2676 34.912V34.7315C67.2676 34.0265 67.3536 33.3846 67.5255 32.8058C67.6974 32.2212 67.9467 31.7197 68.2734 31.3013C68.6058 30.8772 69.0042 30.5505 69.4684 30.3213C69.9384 30.092 70.4656 29.9774 71.0502 29.9774C71.6807 29.9774 72.2022 30.0978 72.6148 30.3385C73.0275 30.5735 73.3628 30.9059 73.6207 31.3357C73.8786 31.7598 74.082 32.2613 74.2311 32.8402C74.3801 33.4133 74.5004 34.0351 74.5921 34.7057V35.0152C74.5004 35.6571 74.3686 36.256 74.1967 36.8119C74.0247 37.3679 73.8012 37.8579 73.5261 38.282C73.251 38.7004 72.9071 39.0299 72.4945 39.2706C72.0876 39.5056 71.6004 39.6231 71.033 39.6231C70.4542 39.6231 69.9326 39.5056 69.4684 39.2706C69.0042 39.0357 68.6058 38.7061 68.2734 38.282C67.9467 37.8579 67.6974 37.3593 67.5255 36.7861C67.3536 36.213 67.2676 35.5883 67.2676 34.912ZM69.9498 34.7315V34.912C69.9498 35.2788 69.9842 35.6198 70.053 35.9351C70.1275 36.2503 70.2364 36.5282 70.3797 36.7689C70.5287 37.0097 70.7121 37.1988 70.9299 37.3363C71.1534 37.4682 71.4142 37.5341 71.7122 37.5341C72.1478 37.5341 72.5002 37.4424 72.7696 37.259C73.0447 37.0698 73.2453 36.8091 73.3714 36.4767C73.5032 36.1442 73.572 35.7574 73.5777 35.3161V34.4134C73.5777 34.0466 73.5404 33.7171 73.4659 33.4248C73.3914 33.1325 73.2797 32.886 73.1307 32.6854C72.9874 32.4848 72.7982 32.333 72.5633 32.2298C72.334 32.1209 72.0561 32.0665 71.7294 32.0665C71.4371 32.0665 71.1792 32.1352 70.9557 32.2728C70.7321 32.4046 70.5459 32.5909 70.3969 32.8316C70.2478 33.0723 70.1361 33.356 70.0616 33.6827C69.9871 34.0036 69.9498 34.3532 69.9498 34.7315ZM81.1079 32.3158V39.4512H78.4256V30.1494H80.9445L81.1079 32.3158ZM83.8847 30.0806L83.8417 32.5823C83.7271 32.5651 83.578 32.5507 83.3946 32.5393C83.2112 32.5221 83.0536 32.5135 82.9218 32.5135C82.5779 32.5135 82.2799 32.5565 82.0277 32.6424C81.7813 32.7227 81.575 32.843 81.4088 33.0035C81.2483 33.164 81.1279 33.3646 81.0477 33.6053C80.9675 33.8403 80.9273 34.1125 80.9273 34.422L80.4201 34.1727C80.4201 33.5594 80.4803 32.9978 80.6007 32.4877C80.721 31.9776 80.8958 31.5363 81.1251 31.1638C81.3543 30.7855 81.6351 30.4932 81.9676 30.2869C82.3 30.0806 82.6782 29.9774 83.1023 29.9774C83.2399 29.9774 83.3803 29.986 83.5236 30.0032C83.6669 30.0204 83.7872 30.0462 83.8847 30.0806ZM89.9018 39.6231C89.1625 39.6231 88.5005 39.5056 87.9159 39.2706C87.3313 39.0357 86.8356 38.7118 86.4287 38.2992C86.0275 37.8808 85.7208 37.3994 85.5088 36.8549C85.2967 36.3104 85.1907 35.7287 85.1907 35.1098V34.7831C85.1907 34.0896 85.2881 33.4506 85.483 32.866C85.6779 32.2814 85.9616 31.7742 86.3341 31.3443C86.7124 30.9087 87.1766 30.5735 87.7268 30.3385C88.277 30.0978 88.9046 29.9774 89.6095 29.9774C90.2686 29.9774 90.856 30.0863 91.3719 30.3041C91.8877 30.5162 92.3232 30.8228 92.6786 31.224C93.0339 31.6194 93.3033 32.098 93.4867 32.6596C93.6758 33.2156 93.7704 33.8403 93.7704 34.5338V35.6342H86.2739V33.9062H91.1397V33.6999C91.1397 33.3732 91.0796 33.0866 90.9592 32.8402C90.8446 32.5937 90.6726 32.4046 90.4434 32.2728C90.2199 32.1352 89.9362 32.0665 89.5923 32.0665C89.2656 32.0665 88.9934 32.1352 88.7756 32.2728C88.5578 32.4103 88.383 32.6052 88.2512 32.8574C88.1251 33.1038 88.0334 33.3932 87.9761 33.7257C87.9188 34.0523 87.8901 34.4048 87.8901 34.7831V35.1098C87.8901 35.4708 87.9388 35.8004 88.0363 36.0984C88.1337 36.3964 88.277 36.6515 88.4661 36.8635C88.6552 37.0756 88.8845 37.2418 89.1539 37.3621C89.4232 37.4825 89.7299 37.5427 90.0737 37.5427C90.4978 37.5427 90.9019 37.4624 91.2859 37.302C91.6699 37.1357 92.0023 36.8778 92.2831 36.5282L93.5383 37.9639C93.3491 38.239 93.0826 38.5055 92.7388 38.7634C92.4006 39.0156 91.9937 39.2219 91.518 39.3824C91.0423 39.5429 90.5036 39.6231 89.9018 39.6231ZM100.733 36.8635C100.733 36.6916 100.679 36.5397 100.57 36.4079C100.467 36.2761 100.278 36.1557 100.002 36.0468C99.7331 35.9379 99.3519 35.829 98.859 35.7201C98.3948 35.6227 97.9621 35.4966 97.5609 35.3419C97.1597 35.1814 96.8101 34.9894 96.5121 34.7659C96.2141 34.5366 95.982 34.2673 95.8158 33.9578C95.6495 33.6426 95.5664 33.2843 95.5664 32.8832C95.5664 32.4934 95.6495 32.1238 95.8158 31.7742C95.9877 31.4246 96.2341 31.1151 96.5551 30.8457C96.8818 30.5763 97.2772 30.3643 97.7415 30.2095C98.2114 30.0548 98.7444 29.9774 99.3405 29.9774C100.16 29.9774 100.868 30.1064 101.464 30.3643C102.06 30.6165 102.518 30.9718 102.839 31.4303C103.16 31.8831 103.321 32.4017 103.321 32.9863H100.639C100.639 32.7456 100.593 32.5364 100.501 32.3588C100.409 32.1811 100.269 32.0435 100.08 31.9461C99.8907 31.8429 99.6414 31.7914 99.3319 31.7914C99.0912 31.7914 98.8791 31.8343 98.6957 31.9203C98.518 32.0005 98.3776 32.1123 98.2745 32.2556C98.177 32.3989 98.1283 32.5651 98.1283 32.7542C98.1283 32.886 98.157 33.0064 98.2143 33.1153C98.2773 33.2184 98.3719 33.3159 98.498 33.4076C98.6298 33.4935 98.7989 33.5709 99.0052 33.6397C99.2173 33.7085 99.4752 33.7744 99.7789 33.8374C100.427 33.9578 101.017 34.1268 101.55 34.3446C102.089 34.5624 102.518 34.8633 102.839 35.2473C103.166 35.6313 103.329 36.1385 103.329 36.7689C103.329 37.1816 103.235 37.5599 103.046 37.9037C102.862 38.2476 102.596 38.5485 102.246 38.8064C101.897 39.0643 101.478 39.2649 100.991 39.4082C100.504 39.5515 99.9537 39.6231 99.3405 39.6231C98.4636 39.6231 97.7214 39.4655 97.1139 39.1503C96.5064 38.8351 96.0479 38.4396 95.7384 37.9639C95.4346 37.4825 95.2827 36.9896 95.2827 36.4853H97.8016C97.8131 36.7947 97.8905 37.0469 98.0337 37.2418C98.1828 37.4366 98.3748 37.5799 98.6097 37.6716C98.8447 37.7576 99.1084 37.8006 99.4007 37.8006C99.6929 37.8006 99.9365 37.7605 100.131 37.6802C100.326 37.6 100.475 37.4911 100.578 37.3535C100.682 37.2103 100.733 37.0469 100.733 36.8635ZM110.481 36.8635C110.481 36.6916 110.427 36.5397 110.318 36.4079C110.215 36.2761 110.026 36.1557 109.751 36.0468C109.481 35.9379 109.1 35.829 108.607 35.7201C108.143 35.6227 107.71 35.4966 107.309 35.3419C106.908 35.1814 106.558 34.9894 106.26 34.7659C105.962 34.5366 105.73 34.2673 105.564 33.9578C105.398 33.6426 105.315 33.2843 105.315 32.8832C105.315 32.4934 105.398 32.1238 105.564 31.7742C105.736 31.4246 105.982 31.1151 106.303 30.8457C106.63 30.5763 107.025 30.3643 107.49 30.2095C107.96 30.0548 108.493 29.9774 109.089 29.9774C109.908 29.9774 110.616 30.1064 111.212 30.3643C111.808 30.6165 112.267 30.9718 112.588 31.4303C112.909 31.8831 113.069 32.4017 113.069 32.9863H110.387C110.387 32.7456 110.341 32.5364 110.249 32.3588C110.158 32.1811 110.017 32.0435 109.828 31.9461C109.639 31.8429 109.39 31.7914 109.08 31.7914C108.839 31.7914 108.627 31.8343 108.444 31.9203C108.266 32.0005 108.126 32.1123 108.023 32.2556C107.925 32.3989 107.876 32.5651 107.876 32.7542C107.876 32.886 107.905 33.0064 107.962 33.1153C108.025 33.2184 108.12 33.3159 108.246 33.4076C108.378 33.4935 108.547 33.5709 108.753 33.6397C108.965 33.7085 109.223 33.7744 109.527 33.8374C110.175 33.9578 110.765 34.1268 111.298 34.3446C111.837 34.5624 112.267 34.8633 112.588 35.2473C112.914 35.6313 113.078 36.1385 113.078 36.7689C113.078 37.1816 112.983 37.5599 112.794 37.9037C112.61 38.2476 112.344 38.5485 111.994 38.8064C111.645 39.0643 111.226 39.2649 110.739 39.4082C110.252 39.5515 109.702 39.6231 109.089 39.6231C108.212 39.6231 107.47 39.4655 106.862 39.1503C106.255 38.8351 105.796 38.4396 105.487 37.9639C105.183 37.4825 105.031 36.9896 105.031 36.4853H107.55C107.561 36.7947 107.639 37.0469 107.782 37.2418C107.931 37.4366 108.123 37.5799 108.358 37.6716C108.593 37.7576 108.857 37.8006 109.149 37.8006C109.441 37.8006 109.685 37.7605 109.88 37.6802C110.074 37.6 110.223 37.4911 110.327 37.3535C110.43 37.2103 110.481 37.0469 110.481 36.8635Z" fill="black"/>
<path d="M86.6736 49.8395C86.6736 49.6798 86.649 49.5366 86.5999 49.4097C86.5549 49.2787 86.4689 49.1599 86.342 49.0535C86.2151 48.943 86.037 48.8345 85.8077 48.728C85.5785 48.6216 85.2817 48.5111 84.9174 48.3965C84.5121 48.2655 84.1273 48.1181 83.7629 47.9543C83.4027 47.7906 83.0834 47.6002 82.805 47.3832C82.5307 47.1622 82.3137 46.9063 82.1541 46.6157C81.9985 46.325 81.9207 45.9873 81.9207 45.6025C81.9207 45.2299 82.0026 44.8922 82.1664 44.5893C82.3301 44.2822 82.5594 44.0202 82.8541 43.8033C83.1489 43.5822 83.4968 43.4123 83.898 43.2936C84.3033 43.1749 84.7475 43.1155 85.2305 43.1155C85.8896 43.1155 86.4648 43.2342 86.956 43.4717C87.4473 43.7091 87.828 44.0346 88.0982 44.448C88.3725 44.8615 88.5096 45.3343 88.5096 45.8665H86.6797C86.6797 45.6045 86.6245 45.3753 86.5139 45.1788C86.4075 44.9782 86.2437 44.8206 86.0227 44.7059C85.8057 44.5913 85.5314 44.534 85.1998 44.534C84.8805 44.534 84.6144 44.5831 84.4015 44.6814C84.1887 44.7755 84.029 44.9045 83.9226 45.0682C83.8161 45.2279 83.7629 45.408 83.7629 45.6086C83.7629 45.7601 83.7998 45.8972 83.8735 46.02C83.9512 46.1428 84.0659 46.2575 84.2173 46.3639C84.3688 46.4703 84.5551 46.5706 84.7761 46.6648C84.9972 46.759 85.253 46.8511 85.5437 46.9411C86.0309 47.0885 86.4587 47.2543 86.8271 47.4385C87.1996 47.6227 87.5107 47.8295 87.7605 48.0587C88.0102 48.288 88.1985 48.5479 88.3254 48.8386C88.4523 49.1292 88.5158 49.4588 88.5158 49.8272C88.5158 50.2161 88.44 50.5641 88.2886 50.8711C88.1371 51.1782 87.9181 51.4381 87.6315 51.651C87.345 51.8639 87.0031 52.0256 86.606 52.1361C86.2089 52.2466 85.7648 52.3019 85.2735 52.3019C84.8314 52.3019 84.3954 52.2446 83.9656 52.13C83.5357 52.0112 83.1448 51.8332 82.7927 51.5957C82.4447 51.3583 82.1664 51.0553 81.9576 50.6869C81.7488 50.3185 81.6444 49.8825 81.6444 49.379H83.4927C83.4927 49.6573 83.5357 49.8927 83.6217 50.0851C83.7077 50.2775 83.8284 50.4331 83.984 50.5518C84.1436 50.6705 84.332 50.7565 84.5489 50.8097C84.77 50.8629 85.0115 50.8895 85.2735 50.8895C85.5928 50.8895 85.8548 50.8445 86.0595 50.7545C86.2683 50.6644 86.4218 50.5395 86.5201 50.3799C86.6224 50.2202 86.6736 50.0401 86.6736 49.8395ZM91.3834 42.7471V52.1791H89.6149V42.7471H91.3834ZM91.1317 48.6237H90.6466C90.6507 48.1611 90.7121 47.7353 90.8308 47.3464C90.9495 46.9534 91.1194 46.6136 91.3405 46.3271C91.5615 46.0364 91.8256 45.8112 92.1326 45.6516C92.4437 45.4919 92.7876 45.4121 93.1642 45.4121C93.4917 45.4121 93.7885 45.4592 94.0546 45.5533C94.3248 45.6434 94.5561 45.7908 94.7485 45.9955C94.945 46.1961 95.0965 46.4601 95.2029 46.7876C95.3093 47.1151 95.3626 47.5122 95.3626 47.9789V52.1791H93.5818V47.9666C93.5818 47.6719 93.5388 47.4406 93.4528 47.2727C93.371 47.1008 93.2502 46.98 93.0905 46.9104C92.935 46.8367 92.7426 46.7999 92.5133 46.7999C92.2595 46.7999 92.0425 46.847 91.8624 46.9411C91.6864 47.0353 91.5451 47.1663 91.4387 47.3341C91.3323 47.4979 91.2545 47.6903 91.2054 47.9113C91.1562 48.1324 91.1317 48.3698 91.1317 48.6237ZM100.293 50.6808V47.721C100.293 47.5081 100.259 47.3259 100.189 47.1745C100.119 47.0189 100.011 46.8981 99.8636 46.8122C99.7204 46.7262 99.5341 46.6832 99.3048 46.6832C99.1083 46.6832 98.9385 46.718 98.7952 46.7876C98.6519 46.8531 98.5414 46.9493 98.4636 47.0762C98.3858 47.199 98.3469 47.3444 98.3469 47.5122H96.5784C96.5784 47.2297 96.6439 46.9616 96.7749 46.7078C96.9059 46.454 97.0963 46.2309 97.346 46.0385C97.5957 45.842 97.8925 45.6884 98.2364 45.5779C98.5843 45.4674 98.9732 45.4121 99.4031 45.4121C99.9189 45.4121 100.377 45.4981 100.779 45.67C101.18 45.842 101.495 46.0999 101.724 46.4437C101.958 46.7876 102.074 47.2175 102.074 47.7333V50.5764C102.074 50.9407 102.097 51.2396 102.142 51.4729C102.187 51.7022 102.252 51.9027 102.338 52.0747V52.1791H100.551C100.465 51.999 100.4 51.7738 100.355 51.5036C100.314 51.2293 100.293 50.955 100.293 50.6808ZM100.527 48.1324L100.539 49.1333H99.5505C99.3171 49.1333 99.1145 49.1599 98.9425 49.2132C98.7706 49.2664 98.6294 49.3421 98.5188 49.4404C98.4083 49.5345 98.3264 49.645 98.2732 49.772C98.2241 49.8989 98.1995 50.038 98.1995 50.1895C98.1995 50.341 98.2343 50.4781 98.3039 50.6009C98.3735 50.7197 98.4738 50.8138 98.6048 50.8834C98.7358 50.9489 98.8893 50.9817 99.0654 50.9817C99.3315 50.9817 99.5627 50.9284 99.7592 50.822C99.9557 50.7156 100.107 50.5846 100.214 50.429C100.324 50.2734 100.381 50.1261 100.386 49.9869L100.852 50.736C100.787 50.9039 100.697 51.0779 100.582 51.258C100.472 51.4381 100.33 51.608 100.158 51.7677C99.9865 51.9232 99.7797 52.0522 99.5382 52.1545C99.2967 52.2528 99.0101 52.3019 98.6785 52.3019C98.2568 52.3019 97.8741 52.218 97.5302 52.0501C97.1904 51.8782 96.9202 51.6428 96.7196 51.344C96.5231 51.041 96.4249 50.6971 96.4249 50.3123C96.4249 49.9644 96.4904 49.6553 96.6214 49.3851C96.7524 49.1149 96.9448 48.8877 97.1986 48.7035C97.4565 48.5152 97.7779 48.3739 98.1627 48.2798C98.5475 48.1815 98.9937 48.1324 99.5013 48.1324H100.527ZM105.206 46.9841V52.1791H103.437V45.5349H105.102L105.206 46.9841ZM107.208 45.4919L107.177 47.1315C107.091 47.1192 106.987 47.109 106.864 47.1008C106.745 47.0885 106.637 47.0824 106.538 47.0824C106.289 47.0824 106.072 47.1151 105.888 47.1806C105.707 47.242 105.556 47.3341 105.433 47.4569C105.314 47.5797 105.224 47.7292 105.163 47.9052C105.106 48.0812 105.073 48.2818 105.065 48.507L104.709 48.3965C104.709 47.9666 104.752 47.5716 104.838 47.2113C104.924 46.847 105.048 46.5297 105.212 46.2595C105.38 45.9893 105.585 45.7805 105.826 45.6332C106.068 45.4858 106.344 45.4121 106.655 45.4121C106.753 45.4121 106.854 45.4203 106.956 45.4367C107.058 45.449 107.142 45.4674 107.208 45.4919ZM110.978 52.3019C110.462 52.3019 110 52.22 109.59 52.0563C109.181 51.8884 108.833 51.6571 108.546 51.3624C108.264 51.0676 108.047 50.7258 107.896 50.3369C107.744 49.9439 107.668 49.5263 107.668 49.0842V48.8386C107.668 48.335 107.74 47.8745 107.883 47.4569C108.027 47.0394 108.231 46.6771 108.497 46.37C108.768 46.063 109.095 45.8276 109.48 45.6639C109.865 45.496 110.299 45.4121 110.782 45.4121C111.252 45.4121 111.67 45.4899 112.034 45.6455C112.399 45.801 112.704 46.0221 112.949 46.3086C113.199 46.5952 113.387 46.9391 113.514 47.3403C113.641 47.7374 113.705 48.1795 113.705 48.6666V49.4035H108.424V48.2245H111.967V48.0894C111.967 47.8438 111.922 47.6248 111.832 47.4324C111.746 47.2359 111.615 47.0803 111.439 46.9657C111.263 46.8511 111.038 46.7937 110.763 46.7937C110.53 46.7937 110.329 46.8449 110.161 46.9473C109.994 47.0496 109.856 47.1929 109.75 47.3771C109.648 47.5613 109.57 47.7783 109.517 48.028C109.468 48.2736 109.443 48.5438 109.443 48.8386V49.0842C109.443 49.3503 109.48 49.5959 109.554 49.8211C109.631 50.0462 109.74 50.2407 109.879 50.4044C110.022 50.5682 110.194 50.6951 110.395 50.7852C110.599 50.8752 110.831 50.9202 111.089 50.9202C111.408 50.9202 111.705 50.8588 111.979 50.736C112.257 50.6091 112.497 50.4188 112.698 50.165L113.557 51.0983C113.418 51.2989 113.228 51.4913 112.986 51.6755C112.749 51.8598 112.462 52.0112 112.126 52.13C111.791 52.2446 111.408 52.3019 110.978 52.3019Z" fill="black"/>
</svg>
