<svg width="162" height="83" viewBox="0 0 162 83" fill="none" xmlns="http://www.w3.org/2000/svg">
<circle cx="56.5642" cy="15.8103" r="8.47272" transform="rotate(-60 56.5642 15.8103)" fill="#D8D8D8"/>
<rect x="12.5286" y="33.4346" width="36.2937" height="14.1212" rx="7.0606" transform="rotate(-30 12.5286 33.4346)" fill="#D8D8D8"/>
<circle cx="57.2443" cy="74.5273" r="8.47272" fill="#63B83C"/>
<rect x="20.2825" y="44.744" width="36.2937" height="14.1212" rx="7.0606" transform="rotate(30 20.2825 44.744)" fill="#63B83C"/>
<circle cx="8.47272" cy="46.9732" r="8.47272" transform="rotate(-180 8.47272 46.9732)" fill="#63B83C"/>
<ellipse cx="8.10485" cy="46.6054" rx="3.53623" ry="3.53623" transform="rotate(-180 8.10485 46.6054)" fill="white"/>
<ellipse cx="56.9622" cy="15.4179" rx="3.53623" ry="3.53623" transform="rotate(-180 56.9622 15.4179)" fill="white"/>
<ellipse cx="57.6121" cy="74.8952" rx="3.53623" ry="3.53623" transform="rotate(-180 57.6121 74.8952)" fill="white"/>
<path d="M60.4083 49.8552H55.9845V46.7972H60.4083C61.061 46.7972 61.5847 46.6885 61.9796 46.4709C62.3825 46.2533 62.6766 45.9552 62.8619 45.5765C63.0553 45.1897 63.152 44.7546 63.152 44.2711C63.152 43.7715 63.0553 43.3082 62.8619 42.8811C62.6766 42.446 62.3825 42.0955 61.9796 41.8296C61.5847 41.5637 61.061 41.4307 60.4083 41.4307H57.4108V55.9711H53.4705V38.3728H60.4083C61.8103 38.3728 63.011 38.6266 64.0101 39.1342C65.0174 39.6419 65.7869 40.3389 66.3187 41.2252C66.8586 42.1036 67.1285 43.1108 67.1285 44.2469C67.1285 45.3831 66.8586 46.3702 66.3187 47.2082C65.7869 48.0462 65.0174 48.6989 64.0101 49.1662C63.011 49.6255 61.8103 49.8552 60.4083 49.8552ZM74.1016 45.9391V55.9711H70.3305V42.8932H73.8719L74.1016 45.9391ZM78.0056 42.7965L77.9452 46.3138C77.784 46.2896 77.5745 46.2694 77.3167 46.2533C77.0588 46.2292 76.8372 46.2171 76.6519 46.2171C76.1684 46.2171 75.7494 46.2775 75.3949 46.3984C75.0484 46.5112 74.7583 46.6804 74.5246 46.906C74.299 47.1316 74.1298 47.4137 74.017 47.7521C73.9042 48.0825 73.8478 48.4652 73.8478 48.9003L73.1347 48.5498C73.1347 47.6876 73.2193 46.898 73.3885 46.1808C73.5577 45.4637 73.8035 44.8432 74.1258 44.3195C74.4481 43.7876 74.8429 43.3767 75.3103 43.0866C75.7776 42.7965 76.3094 42.6515 76.9057 42.6515C77.0991 42.6515 77.2965 42.6636 77.498 42.6877C77.6994 42.7119 77.8686 42.7482 78.0056 42.7965ZM79.588 49.5651V49.3113C79.588 48.3524 79.725 47.4701 79.999 46.6643C80.2729 45.8504 80.6758 45.1454 81.2076 44.5491C81.7394 43.9528 82.3921 43.4895 83.1657 43.1591C83.9392 42.8207 84.8256 42.6515 85.8248 42.6515C86.84 42.6515 87.7345 42.8207 88.508 43.1591C89.2896 43.4895 89.9463 43.9528 90.4782 44.5491C91.01 45.1454 91.4129 45.8504 91.6868 46.6643C91.9608 47.4701 92.0978 48.3524 92.0978 49.3113V49.5651C92.0978 50.5159 91.9608 51.3983 91.6868 52.2121C91.4129 53.0179 91.01 53.7229 90.4782 54.3273C89.9463 54.9236 89.2937 55.3869 88.5201 55.7172C87.7466 56.0476 86.8562 56.2128 85.8489 56.2128C84.8498 56.2128 83.9594 56.0476 83.1778 55.7172C82.3962 55.3869 81.7394 54.9236 81.2076 54.3273C80.6758 53.7229 80.2729 53.0179 79.999 52.2121C79.725 51.3983 79.588 50.5159 79.588 49.5651ZM83.3712 49.3113V49.5651C83.3712 50.0808 83.4114 50.5643 83.492 51.0155C83.5807 51.4667 83.7217 51.8616 83.9151 52.2C84.1084 52.5384 84.3623 52.8043 84.6765 52.9977C84.9988 53.1831 85.3896 53.2757 85.8489 53.2757C86.3082 53.2757 86.695 53.1831 87.0093 52.9977C87.3235 52.8043 87.5773 52.5384 87.7707 52.2C87.9641 51.8616 88.1011 51.4667 88.1817 51.0155C88.2703 50.5643 88.3146 50.0808 88.3146 49.5651V49.3113C88.3146 48.8036 88.2703 48.3282 88.1817 47.885C88.1011 47.4338 87.9641 47.0349 87.7707 46.6885C87.5773 46.342 87.3195 46.072 86.9972 45.8786C86.6829 45.6853 86.2921 45.5886 85.8248 45.5886C85.3735 45.5886 84.9908 45.6853 84.6765 45.8786C84.3623 46.072 84.1084 46.342 83.9151 46.6885C83.7217 47.0349 83.5807 47.4338 83.492 47.885C83.4114 48.3282 83.3712 48.8036 83.3712 49.3113ZM103.313 42.8932H106.746V55.4997C106.746 56.7003 106.472 57.7196 105.924 58.5576C105.384 59.3956 104.631 60.0322 103.664 60.4673C102.697 60.9025 101.565 61.12 100.267 61.12C99.7034 61.12 99.1152 61.0435 98.5028 60.8904C97.8904 60.7453 97.3143 60.5237 96.7744 60.2256C96.2345 59.9355 95.7833 59.5649 95.4207 59.1136L97.0282 56.8897C97.3989 57.3087 97.842 57.6471 98.3577 57.9049C98.8734 58.1709 99.4617 58.3038 100.122 58.3038C100.727 58.3038 101.238 58.195 101.657 57.9775C102.076 57.7599 102.395 57.4416 102.612 57.0226C102.838 56.6036 102.951 56.096 102.951 55.4997V45.9512L103.313 42.8932ZM94.5746 49.5893V49.3354C94.5746 48.3443 94.6955 47.4419 94.9372 46.628C95.1789 45.8061 95.5294 45.1011 95.9887 44.5128C96.4561 43.9166 97.0161 43.4573 97.6688 43.135C98.3295 42.8126 99.0709 42.6515 99.8928 42.6515C100.779 42.6515 101.512 42.8207 102.093 43.1591C102.673 43.4895 103.144 43.9569 103.507 44.5612C103.869 45.1575 104.155 45.8625 104.365 46.6764C104.574 47.4821 104.744 48.3564 104.872 49.2992V49.7343C104.744 50.6368 104.558 51.4788 104.317 52.2604C104.075 53.042 103.761 53.731 103.374 54.3273C102.987 54.9155 102.503 55.3788 101.923 55.7172C101.351 56.0476 100.666 56.2128 99.8686 56.2128C99.0547 56.2128 98.3215 56.0476 97.6688 55.7172C97.0161 55.3869 96.4561 54.9236 95.9887 54.3273C95.5294 53.731 95.1789 53.03 94.9372 52.2242C94.6955 51.4184 94.5746 50.5401 94.5746 49.5893ZM98.3457 49.3354V49.5893C98.3457 50.105 98.394 50.5844 98.4907 51.0276C98.5954 51.4708 98.7485 51.8616 98.95 52.2C99.1595 52.5384 99.4173 52.8043 99.7235 52.9977C100.038 53.1831 100.404 53.2757 100.823 53.2757C101.436 53.2757 101.931 53.1468 102.31 52.889C102.697 52.623 102.979 52.2564 103.156 51.7891C103.342 51.3217 103.438 50.7778 103.446 50.1573V48.8882C103.446 48.3725 103.394 47.9092 103.289 47.4983C103.184 47.0873 103.027 46.7408 102.818 46.4588C102.616 46.1768 102.35 45.9632 102.02 45.8182C101.698 45.6651 101.307 45.5886 100.848 45.5886C100.437 45.5886 100.074 45.6853 99.7598 45.8786C99.4455 46.064 99.1837 46.3259 98.9742 46.6643C98.7647 47.0027 98.6075 47.4016 98.5028 47.8609C98.398 48.3121 98.3457 48.8036 98.3457 49.3354ZM114.033 45.9391V55.9711H110.262V42.8932H113.804L114.033 45.9391ZM117.937 42.7965L117.877 46.3138C117.716 46.2896 117.506 46.2694 117.248 46.2533C116.99 46.2292 116.769 46.2171 116.584 46.2171C116.1 46.2171 115.681 46.2775 115.327 46.3984C114.98 46.5112 114.69 46.6804 114.456 46.906C114.231 47.1316 114.061 47.4137 113.949 47.7521C113.836 48.0825 113.779 48.4652 113.779 48.9003L113.066 48.5498C113.066 47.6876 113.151 46.898 113.32 46.1808C113.489 45.4637 113.735 44.8432 114.057 44.3195C114.38 43.7876 114.775 43.3767 115.242 43.0866C115.709 42.7965 116.241 42.6515 116.837 42.6515C117.031 42.6515 117.228 42.6636 117.43 42.6877C117.631 42.7119 117.8 42.7482 117.937 42.7965ZM126.397 56.2128C125.358 56.2128 124.427 56.0476 123.605 55.7172C122.783 55.3869 122.086 54.9316 121.514 54.3514C120.95 53.7632 120.519 53.0864 120.221 52.3209C119.923 51.5554 119.774 50.7375 119.774 49.8673V49.408C119.774 48.433 119.91 47.5345 120.184 46.7126C120.458 45.8907 120.857 45.1776 121.381 44.5733C121.913 43.9609 122.566 43.4895 123.339 43.1591C124.113 42.8207 124.995 42.6515 125.986 42.6515C126.913 42.6515 127.739 42.8046 128.464 43.1108C129.189 43.4089 129.801 43.84 130.301 44.4041C130.801 44.9601 131.179 45.6329 131.437 46.4225C131.703 47.2042 131.836 48.0825 131.836 49.0575V50.6046H121.296V48.1751H128.138V47.885C128.138 47.4257 128.053 47.0229 127.884 46.6764C127.723 46.3299 127.481 46.064 127.159 45.8786C126.844 45.6853 126.445 45.5886 125.962 45.5886C125.503 45.5886 125.12 45.6853 124.814 45.8786C124.507 46.072 124.262 46.346 124.076 46.7005C123.899 47.047 123.77 47.4539 123.69 47.9213C123.609 48.3806 123.569 48.8762 123.569 49.408V49.8673C123.569 50.3749 123.637 50.8382 123.774 51.2572C123.911 51.6762 124.113 52.0348 124.379 52.333C124.644 52.6311 124.967 52.8648 125.345 53.034C125.724 53.2032 126.155 53.2878 126.639 53.2878C127.235 53.2878 127.803 53.175 128.343 52.9494C128.883 52.7157 129.35 52.3531 129.745 51.8616L131.51 53.8801C131.244 54.2668 130.869 54.6415 130.386 55.0041C129.91 55.3587 129.338 55.6488 128.669 55.8744C128.001 56.1 127.243 56.2128 126.397 56.2128ZM141.625 52.333C141.625 52.0912 141.549 51.8777 141.396 51.6924C141.251 51.507 140.985 51.3378 140.598 51.1847C140.219 51.0316 139.683 50.8785 138.99 50.7254C138.338 50.5884 137.729 50.4112 137.165 50.1936C136.601 49.968 136.11 49.6981 135.691 49.3838C135.272 49.0615 134.945 48.6828 134.712 48.2476C134.478 47.8045 134.361 47.3008 134.361 46.7368C134.361 46.1889 134.478 45.6691 134.712 45.1776C134.953 44.6861 135.3 44.251 135.751 43.8722C136.211 43.4935 136.767 43.1954 137.419 42.9778C138.08 42.7603 138.829 42.6515 139.667 42.6515C140.82 42.6515 141.815 42.8328 142.653 43.1954C143.491 43.5499 144.135 44.0495 144.587 44.6941C145.038 45.3307 145.263 46.0599 145.263 46.8818H141.492C141.492 46.5434 141.428 46.2493 141.299 45.9995C141.17 45.7497 140.973 45.5563 140.707 45.4193C140.441 45.2743 140.09 45.2018 139.655 45.2018C139.317 45.2018 139.019 45.2622 138.761 45.3831C138.511 45.4959 138.314 45.653 138.169 45.8545C138.032 46.0559 137.963 46.2896 137.963 46.5555C137.963 46.7408 138.003 46.91 138.084 47.0631C138.173 47.2082 138.306 47.3452 138.483 47.4741C138.668 47.595 138.906 47.7037 139.196 47.8004C139.494 47.8971 139.857 47.9898 140.284 48.0784C141.194 48.2476 142.024 48.4853 142.774 48.7915C143.531 49.0977 144.135 49.5208 144.587 50.0607C145.046 50.6005 145.276 51.3136 145.276 52.2C145.276 52.7802 145.143 53.312 144.877 53.7955C144.619 54.2789 144.244 54.702 143.753 55.0646C143.261 55.4272 142.673 55.7092 141.988 55.9106C141.303 56.1121 140.53 56.2128 139.667 56.2128C138.434 56.2128 137.391 55.9912 136.537 55.548C135.683 55.1049 135.038 54.5489 134.603 53.8801C134.176 53.2032 133.962 52.5102 133.962 51.8011H137.504C137.52 52.2363 137.629 52.5908 137.83 52.8648C138.04 53.1387 138.31 53.3402 138.64 53.4691C138.97 53.59 139.341 53.6504 139.752 53.6504C140.163 53.6504 140.505 53.594 140.779 53.4812C141.053 53.3684 141.263 53.2153 141.408 53.0219C141.553 52.8205 141.625 52.5908 141.625 52.333ZM155.331 52.333C155.331 52.0912 155.254 51.8777 155.101 51.6924C154.956 51.507 154.69 51.3378 154.303 51.1847C153.925 51.0316 153.389 50.8785 152.696 50.7254C152.043 50.5884 151.435 50.4112 150.871 50.1936C150.307 49.968 149.815 49.6981 149.396 49.3838C148.977 49.0615 148.651 48.6828 148.417 48.2476C148.183 47.8045 148.067 47.3008 148.067 46.7368C148.067 46.1889 148.183 45.6691 148.417 45.1776C148.659 44.6861 149.005 44.251 149.457 43.8722C149.916 43.4935 150.472 43.1954 151.125 42.9778C151.785 42.7603 152.535 42.6515 153.373 42.6515C154.525 42.6515 155.52 42.8328 156.358 43.1954C157.196 43.5499 157.841 44.0495 158.292 44.6941C158.743 45.3307 158.969 46.0599 158.969 46.8818H155.198C155.198 46.5434 155.133 46.2493 155.004 45.9995C154.875 45.7497 154.678 45.5563 154.412 45.4193C154.146 45.2743 153.796 45.2018 153.361 45.2018C153.022 45.2018 152.724 45.2622 152.466 45.3831C152.216 45.4959 152.019 45.653 151.874 45.8545C151.737 46.0559 151.668 46.2896 151.668 46.5555C151.668 46.7408 151.709 46.91 151.789 47.0631C151.878 47.2082 152.011 47.3452 152.188 47.4741C152.374 47.595 152.611 47.7037 152.901 47.8004C153.199 47.8971 153.562 47.9898 153.989 48.0784C154.9 48.2476 155.73 48.4853 156.479 48.7915C157.236 49.0977 157.841 49.5208 158.292 50.0607C158.751 50.6005 158.981 51.3136 158.981 52.2C158.981 52.7802 158.848 53.312 158.582 53.7955C158.324 54.2789 157.95 54.702 157.458 55.0646C156.966 55.4272 156.378 55.7092 155.693 55.9106C155.008 56.1121 154.235 56.2128 153.373 56.2128C152.14 56.2128 151.096 55.9912 150.242 55.548C149.388 55.1049 148.743 54.5489 148.308 53.8801C147.881 53.2032 147.668 52.5102 147.668 51.8011H151.209C151.225 52.2363 151.334 52.5908 151.536 52.8648C151.745 53.1387 152.015 53.3402 152.345 53.4691C152.676 53.59 153.046 53.6504 153.457 53.6504C153.868 53.6504 154.211 53.594 154.485 53.4812C154.759 53.3684 154.968 53.2153 155.113 53.0219C155.258 52.8205 155.331 52.5908 155.331 52.333Z" fill="black"/>
<path d="M121.858 69.3884C121.858 69.1639 121.824 68.9625 121.755 68.7841C121.691 68.5999 121.571 68.433 121.392 68.2833C121.214 68.1279 120.963 67.9754 120.641 67.8258C120.319 67.6761 119.901 67.5207 119.389 67.3596C118.819 67.1754 118.278 66.9682 117.766 66.738C117.26 66.5077 116.811 66.2401 116.419 65.9351C116.034 65.6243 115.729 65.2645 115.504 64.8559C115.285 64.4472 115.176 63.9724 115.176 63.4314C115.176 62.9076 115.291 62.4328 115.521 62.0069C115.752 61.5752 116.074 61.2068 116.488 60.9018C116.903 60.591 117.392 60.3521 117.956 60.1852C118.526 60.0183 119.15 59.9349 119.829 59.9349C120.756 59.9349 121.565 60.1018 122.255 60.4356C122.946 60.7694 123.481 61.227 123.861 61.8083C124.247 62.3896 124.44 63.0544 124.44 63.8026H121.867C121.867 63.4343 121.789 63.1119 121.634 62.8357C121.484 62.5537 121.254 62.3321 120.943 62.1709C120.638 62.0098 120.252 61.9292 119.786 61.9292C119.337 61.9292 118.963 61.9982 118.664 62.1364C118.365 62.2688 118.14 62.4501 117.991 62.6803C117.841 62.9047 117.766 63.158 117.766 63.44C117.766 63.653 117.818 63.8458 117.921 64.0185C118.031 64.1911 118.192 64.3523 118.405 64.5019C118.618 64.6516 118.88 64.7926 119.191 64.925C119.501 65.0573 119.861 65.1868 120.27 65.3135C120.955 65.5207 121.556 65.7538 122.074 66.0128C122.598 66.2718 123.035 66.5624 123.386 66.8847C123.738 67.207 124.002 67.5725 124.181 67.9812C124.359 68.3898 124.448 68.8531 124.448 69.3711C124.448 69.9179 124.342 70.4072 124.129 70.8388C123.916 71.2705 123.608 71.636 123.205 71.9353C122.802 72.2346 122.322 72.4619 121.763 72.6173C121.205 72.7727 120.581 72.8504 119.89 72.8504C119.268 72.8504 118.655 72.7698 118.051 72.6087C117.447 72.4418 116.897 72.1914 116.402 71.8576C115.913 71.5237 115.521 71.0978 115.228 70.5798C114.934 70.0618 114.788 69.4488 114.788 68.7409H117.386C117.386 69.1323 117.447 69.4632 117.568 69.7338C117.688 70.0043 117.858 70.223 118.077 70.3899C118.301 70.5568 118.566 70.6777 118.871 70.7525C119.182 70.8273 119.522 70.8647 119.89 70.8647C120.339 70.8647 120.707 70.8014 120.995 70.6748C121.289 70.5482 121.504 70.3726 121.642 70.1482C121.786 69.9237 121.858 69.6704 121.858 69.3884ZM128.48 59.4169V72.6777H125.994V59.4169H128.48ZM128.126 67.679H127.444C127.45 67.0286 127.536 66.43 127.703 65.8833C127.87 65.3307 128.109 64.853 128.42 64.4501C128.73 64.0415 129.102 63.7249 129.533 63.5004C129.971 63.276 130.454 63.1637 130.984 63.1637C131.444 63.1637 131.862 63.2299 132.236 63.3623C132.616 63.4889 132.941 63.6961 133.211 63.9839C133.487 64.2659 133.7 64.6372 133.85 65.0976C134 65.5581 134.075 66.1164 134.075 66.7725V72.6777H131.571V66.7552C131.571 66.3408 131.51 66.0156 131.39 65.7797C131.274 65.5379 131.105 65.3681 130.88 65.2703C130.661 65.1667 130.391 65.1149 130.069 65.1149C129.712 65.1149 129.407 65.1811 129.154 65.3135C128.906 65.4458 128.707 65.63 128.558 65.866C128.408 66.0962 128.299 66.3667 128.23 66.6775C128.161 66.9883 128.126 67.3222 128.126 67.679ZM141.007 70.5712V66.4099C141.007 66.1106 140.958 65.8545 140.86 65.6415C140.763 65.4228 140.61 65.253 140.403 65.1322C140.201 65.0113 139.939 64.9509 139.617 64.9509C139.341 64.9509 139.102 64.9998 138.901 65.0976C138.699 65.1897 138.544 65.325 138.434 65.5034C138.325 65.6761 138.27 65.8804 138.27 66.1164H135.784C135.784 65.7192 135.876 65.3422 136.06 64.9854C136.244 64.6285 136.512 64.3149 136.863 64.0444C137.214 63.7681 137.631 63.5522 138.115 63.3968C138.604 63.2414 139.151 63.1637 139.755 63.1637C140.481 63.1637 141.125 63.2846 141.689 63.5263C142.253 63.7681 142.696 64.1307 143.019 64.6142C143.347 65.0976 143.511 65.702 143.511 66.4272V70.4244C143.511 70.9367 143.542 71.3568 143.606 71.6849C143.669 72.0072 143.761 72.2892 143.882 72.531V72.6777H141.37C141.249 72.4245 141.157 72.1079 141.093 71.7281C141.036 71.3424 141.007 70.9568 141.007 70.5712ZM141.335 66.9883L141.352 68.3956H139.963C139.634 68.3956 139.35 68.433 139.108 68.5078C138.866 68.5826 138.668 68.6891 138.512 68.8272C138.357 68.9596 138.242 69.115 138.167 69.2934C138.098 69.4719 138.063 69.6676 138.063 69.8805C138.063 70.0935 138.112 70.2863 138.21 70.459C138.308 70.6259 138.449 70.7582 138.633 70.8561C138.817 70.9482 139.033 70.9942 139.28 70.9942C139.655 70.9942 139.98 70.9194 140.256 70.7698C140.532 70.6201 140.745 70.4359 140.895 70.2172C141.05 69.9985 141.131 69.7913 141.137 69.5956L141.793 70.6489C141.701 70.8849 141.574 71.1295 141.413 71.3827C141.258 71.636 141.059 71.8748 140.817 72.0993C140.575 72.318 140.285 72.4993 139.945 72.6432C139.606 72.7813 139.203 72.8504 138.737 72.8504C138.144 72.8504 137.606 72.7324 137.122 72.4964C136.644 72.2547 136.265 71.9238 135.983 71.5036C135.706 71.0777 135.568 70.5942 135.568 70.0532C135.568 69.564 135.66 69.1294 135.844 68.7495C136.029 68.3697 136.299 68.0502 136.656 67.7912C137.019 67.5265 137.47 67.3279 138.011 67.1955C138.552 67.0574 139.18 66.9883 139.893 66.9883H141.335ZM147.914 65.3739V72.6777H145.427V63.3364H147.767L147.914 65.3739ZM150.728 63.276L150.685 65.5811C150.564 65.5638 150.418 65.5494 150.245 65.5379C150.078 65.5207 149.925 65.512 149.787 65.512C149.436 65.512 149.131 65.5581 148.872 65.6502C148.619 65.7365 148.406 65.866 148.233 66.0387C148.066 66.2113 147.94 66.4214 147.853 66.6689C147.773 66.9164 147.727 67.1984 147.715 67.515L147.215 67.3596C147.215 66.7552 147.275 66.1998 147.396 65.6933C147.517 65.1811 147.692 64.735 147.922 64.3552C148.158 63.9753 148.446 63.6817 148.786 63.4745C149.125 63.2673 149.514 63.1637 149.951 63.1637C150.089 63.1637 150.23 63.1753 150.374 63.1983C150.518 63.2155 150.636 63.2414 150.728 63.276ZM156.029 72.8504C155.304 72.8504 154.654 72.7353 154.078 72.5051C153.503 72.2691 153.013 71.9439 152.61 71.5295C152.213 71.1151 151.908 70.6345 151.695 70.0877C151.482 69.5352 151.376 68.9481 151.376 68.3265V67.9812C151.376 67.2732 151.477 66.6257 151.678 66.0387C151.879 65.4516 152.167 64.9422 152.541 64.5106C152.921 64.0789 153.382 63.7479 153.923 63.5177C154.464 63.2817 155.074 63.1637 155.753 63.1637C156.415 63.1637 157.002 63.2731 157.514 63.4918C158.026 63.7105 158.455 64.0213 158.801 64.4242C159.152 64.8271 159.416 65.3106 159.595 65.8746C159.773 66.4329 159.862 67.0545 159.862 67.7394V68.7754H152.438V67.1178H157.419V66.9279C157.419 66.5826 157.356 66.2746 157.229 66.0041C157.108 65.7279 156.924 65.5091 156.677 65.348C156.429 65.1868 156.113 65.1063 155.727 65.1063C155.399 65.1063 155.117 65.1782 154.881 65.3221C154.645 65.466 154.452 65.6674 154.303 65.9264C154.159 66.1854 154.049 66.4905 153.974 66.8416C153.905 67.1869 153.871 67.5668 153.871 67.9812V68.3265C153.871 68.7006 153.923 69.046 154.026 69.3625C154.136 69.6791 154.288 69.9525 154.484 70.1827C154.685 70.4129 154.927 70.5913 155.209 70.718C155.497 70.8446 155.822 70.9079 156.185 70.9079C156.634 70.9079 157.051 70.8216 157.436 70.6489C157.828 70.4705 158.165 70.2028 158.447 69.846L159.655 71.1583C159.46 71.4403 159.192 71.7108 158.852 71.9698C158.519 72.2288 158.116 72.4418 157.644 72.6087C157.172 72.7698 156.634 72.8504 156.029 72.8504Z" fill="black"/>
</svg>
